<?xml version="1.0" encoding="utf-8"?>
<!-- Generator: Adobe Illustrator 21.0.2, SVG Export Plug-In . SVG Version: 6.00 Build 0)  -->
<svg version="1.1" id="Layer_1" xmlns="http://www.w3.org/2000/svg" xmlns:xlink="http://www.w3.org/1999/xlink" x="0px" y="0px"
	 viewBox="0 0 1428 1576" style="enable-background:new 0 0 1428 1576;" xml:space="preserve">
<style type="text/css">
	.st0{fill:none;stroke:#000000;stroke-width:5;stroke-linecap:round;stroke-linejoin:round;stroke-miterlimit:10;}
	.st1{fill:none;stroke:#507ACE;stroke-width:5;stroke-linecap:round;stroke-linejoin:round;stroke-miterlimit:10;}
	.st2{fill:none;stroke:#9AA5BA;stroke-width:5;stroke-linecap:round;stroke-linejoin:round;stroke-miterlimit:10;}
	.st3{fill:none;stroke:#2035EF;stroke-width:5;stroke-linecap:round;stroke-linejoin:round;stroke-miterlimit:10;}
</style>
<g>
	<line class="st0" x1="1034" y1="769" x2="1049.2" y2="754.7"/>
	<line class="st0" x1="1048.7" y1="769.5" x2="1034.4" y2="754.2"/>
</g>
<g>
	<line class="st0" x1="1161.5" y1="171.1" x2="1176.7" y2="156.8"/>
	<line class="st0" x1="1176.3" y1="171.6" x2="1161.9" y2="156.3"/>
</g>
<g>
	<line class="st1" x1="1297.3" y1="581.2" x2="1312.5" y2="566.9"/>
	<line class="st1" x1="1312.1" y1="581.7" x2="1297.7" y2="566.4"/>
</g>
<g>
	<line class="st2" x1="1330.2" y1="214.4" x2="1345.5" y2="200.1"/>
	<line class="st2" x1="1345" y1="214.9" x2="1330.7" y2="199.6"/>
</g>
<g>
	<line class="st1" x1="715.7" y1="294.7" x2="731" y2="280.4"/>
	<line class="st1" x1="730.5" y1="295.1" x2="716.2" y2="279.9"/>
</g>
<g>
	<line class="st0" x1="938.8" y1="1020.4" x2="954" y2="1006.1"/>
	<line class="st0" x1="953.5" y1="1020.9" x2="939.2" y2="1005.6"/>
</g>
<g>
	<line class="st1" x1="1128.1" y1="498.6" x2="1143.4" y2="484.3"/>
	<line class="st1" x1="1142.9" y1="499.1" x2="1128.6" y2="483.9"/>
</g>
<g>
	<line class="st0" x1="892.3" y1="618" x2="907.5" y2="603.7"/>
	<line class="st0" x1="907.1" y1="618.5" x2="892.8" y2="603.2"/>
</g>
<polygon class="st2" points="1208.5,287.5 1219,269.3 1229.4,287.5 1239.9,305.7 1218.9,305.7 1198,305.7 "/>
<polygon class="st1" points="791.7,856.1 802.2,837.9 812.6,856.1 823.1,874.3 802.1,874.2 781.2,874.2 "/>
<polygon class="st3" points="874.9,1163.8 885.4,1145.7 895.9,1163.8 906.4,1182 885.4,1182 864.4,1182 "/>
<polygon class="st0" points="645.8,1087.8 640.3,1067.6 660.6,1073 680.8,1078.5 666,1093.3 651.2,1108.1 "/>
<polygon class="st1" points="1022.4,72 1017,51.7 1037.2,57.2 1057.5,62.6 1042.7,77.4 1027.8,92.3 "/>
<polygon class="st1" points="1138.8,1331.7 1133.4,1311.5 1153.7,1316.9 1173.9,1322.4 1159.1,1337.2 1144.2,1352 "/>
<polygon class="st2" points="424,256 405.9,245.5 424,235.1 442.2,224.6 442.2,245.5 442.2,266.5 "/>
<polygon class="st0" points="606.1,859.3 588,848.8 606.1,838.3 624.3,827.8 624.3,848.8 624.3,869.8 "/>
<circle class="st0" cx="1246.7" cy="1013.3" r="15.9"/>
<circle class="st3" cx="949.2" cy="245.5" r="15.9"/>
<circle class="st3" cx="980.5" cy="872" r="15.9"/>
<path class="st2" d="M1008.4,1367.9c8.8,0,15.9-7.1,15.9-15.9c0-8.8-7.1-15.9-15.9-15.9"/>
<path class="st3" d="M1073.4,1124c0-8.8-7.1-15.9-15.9-15.9c-8.8,0-15.9,7.1-15.9,15.9"/>
<path class="st3" d="M1260,52.6c0-8.8-7.1-15.9-15.8-15.9s-15.8,7.1-15.8,15.9"/>
<path class="st1" d="M994.2,395.3c8.8,0,15.9-7.1,15.9-15.8c0-8.7-7.1-15.8-15.9-15.8"/>
<path class="st3" d="M1190,751.4c8.8,0,15.9-7.1,15.9-15.8c0-8.7-7.1-15.8-15.9-15.8"/>
<path class="st3" d="M816,257.1c8.8,0,15.9-7.1,15.9-15.8c0-8.7-7.1-15.8-15.9-15.8"/>
<circle class="st1" cx="695.5" cy="1232" r="15.9"/>
<circle class="st0" cx="1385.7" cy="406.3" r="15.9"/>
<rect x="619.6" y="491.5" class="st3" width="31.7" height="31.7"/>
<rect x="793.6" y="1035.9" class="st2" width="31.7" height="31.7"/>
<rect x="1281.8" y="1494.3" class="st2" width="31.7" height="31.7"/>
<rect x="752.5" y="691.6" class="st3" width="31.7" height="31.7"/>
<rect x="426.4" y="558.2" class="st2" width="31.7" height="31.7"/>
<g>
	<path class="st0" d="M885.4,1434c6.9,0,5.7-12.3,14.5-12.3"/>
	<path class="st0" d="M856.3,1434c6.9,0,5.7-12.3,14.5-12.3"/>
	<path class="st0" d="M885.4,1434c-6.9,0-5.7-12.3-14.5-12.3"/>
	<path class="st0" d="M841.8,1421.7"/>
	<path class="st0" d="M856.3,1434c-6.9,0-5.7-12.3-14.5-12.3"/>
</g>
<g>
	<path class="st1" d="M878.1,735.6c6.9,0,5.7-12.3,14.5-12.3"/>
	<path class="st1" d="M849,735.6c6.9,0,5.7-12.3,14.5-12.3"/>
	<path class="st1" d="M878.1,735.6c-6.9,0-5.7-12.3-14.5-12.3"/>
	<path class="st1" d="M834.5,723.3"/>
	<path class="st1" d="M849,735.6c-6.9,0-5.7-12.3-14.5-12.3"/>
</g>
<g>
	<path class="st2" d="M770.6,406.5c6.9,0,5.7-12.3,14.5-12.3"/>
	<path class="st2" d="M741.5,406.5c6.9,0,5.7-12.3,14.5-12.3"/>
	<path class="st2" d="M770.6,406.5c-6.9,0-5.7-12.3-14.5-12.3"/>
	<path class="st2" d="M727,394.3"/>
	<path class="st2" d="M741.5,406.5c-6.9,0-5.7-12.3-14.5-12.3"/>
</g>
<g>
	<path class="st0" d="M1334,816.3c6.9,0,5.7-12.3,14.5-12.3"/>
	<path class="st0" d="M1304.9,816.3c6.9,0,5.7-12.3,14.5-12.3"/>
	<path class="st0" d="M1334,816.3c-6.9,0-5.7-12.3-14.5-12.3"/>
	<path class="st0" d="M1290.4,804"/>
	<path class="st0" d="M1304.9,816.3c-6.9,0-5.7-12.3-14.5-12.3"/>
</g>
<g>
	<path class="st1" d="M593.9,714c0,6.9,12.3,5.7,12.3,14.5"/>
	<path class="st1" d="M593.9,685c0,6.9,12.3,5.7,12.3,14.5"/>
	<path class="st1" d="M593.9,714c0-6.9,12.3-5.7,12.3-14.5"/>
	<path class="st1" d="M606.1,670.4"/>
	<path class="st1" d="M593.9,685c0-6.9,12.3-5.7,12.3-14.5"/>
</g>
<g>
	<path class="st3" d="M1363.6,1111.2c0,6.9,12.3,5.7,12.3,14.5"/>
	<path class="st3" d="M1363.6,1082.1c0,6.9,12.3,5.7,12.3,14.5"/>
	<path class="st3" d="M1363.6,1111.2c0-6.9,12.3-5.7,12.3-14.5"/>
	<path class="st3" d="M1375.9,1067.6"/>
	<path class="st3" d="M1363.6,1082.1c0-6.9,12.3-5.7,12.3-14.5"/>
</g>
<g>
	<path class="st0" d="M1067.3,195.4c0,6.9,12.3,5.7,12.3,14.5"/>
	<path class="st0" d="M1067.3,166.3c0,6.9,12.3,5.7,12.3,14.5"/>
	<path class="st0" d="M1067.3,195.4c0-6.9,12.3-5.7,12.3-14.5"/>
	<path class="st0" d="M1079.5,151.8"/>
	<path class="st0" d="M1067.3,166.3c0-6.9,12.3-5.7,12.3-14.5"/>
</g>
<g>
	<path class="st3" d="M695.5,870.6c0,6.9,12.3,5.7,12.3,14.5"/>
	<path class="st3" d="M695.5,841.6c0,6.9,12.3,5.7,12.3,14.5"/>
	<path class="st3" d="M695.5,870.6c0-6.9,12.3-5.7,12.3-14.5"/>
	<path class="st3" d="M707.8,827"/>
	<path class="st3" d="M695.5,841.6c0-6.9,12.3-5.7,12.3-14.5"/>
</g>
<line class="st0" x1="1153.7" y1="589.9" x2="1117.8" y2="589.9"/>
<line class="st3" x1="1278.7" y1="436.3" x2="1242.9" y2="436.3"/>
<line class="st1" x1="896" y1="76" x2="860.2" y2="76"/>
<line class="st1" x1="606.1" y1="253.6" x2="570.3" y2="253.6"/>
<line class="st0" x1="736" y1="193.6" x2="710.7" y2="168.2"/>
<line class="st3" x1="1324.9" y1="134.8" x2="1299.5" y2="109.5"/>
<line class="st3" x1="919" y1="491.5" x2="893.7" y2="466.1"/>
<path class="st1" d="M1005.1,579.3c2.9,1.8,6.8,1,8.6-2c1.8-2.9,1-6.8-2-8.6c-2.9-1.8-6.8-1-8.6,2
	C1001.3,573.6,1002.2,577.5,1005.1,579.3z"/>
<ellipse transform="matrix(0.5326 -0.8464 0.8464 0.5326 242.6118 1063.2144)" class="st0" cx="1084" cy="311.9" rx="6.3" ry="6.3"/>
<ellipse transform="matrix(0.5326 -0.8464 0.8464 0.5326 151.9615 1275.4857)" class="st1" cx="1230.8" cy="500.2" rx="6.3" ry="6.3"/>
<ellipse transform="matrix(0.5326 -0.8464 0.8464 0.5326 -62.7321 645.2969)" class="st0" cx="552.9" cy="379.4" rx="6.3" ry="6.3"/>
<ellipse transform="matrix(0.5326 -0.8464 0.8464 0.5326 -99.9928 865.0805)" class="st0" cx="733.2" cy="523.1" rx="6.3" ry="6.3"/>
</svg>
