<?xml version="1.0" encoding="utf-8"?>
<!-- Generator: Adobe Illustrator 21.0.2, SVG Export Plug-In . SVG Version: 6.00 Build 0)  -->
<svg version="1.1" id="Layer_1" xmlns="http://www.w3.org/2000/svg" xmlns:xlink="http://www.w3.org/1999/xlink" x="0px" y="0px"
	 viewBox="0 0 1428 1576" style="enable-background:new 0 0 1428 1576;" xml:space="preserve">
<style type="text/css">
	.st0{fill:none;stroke:#000000;stroke-width:5;stroke-linecap:round;stroke-linejoin:round;stroke-miterlimit:10;}
	.st1{fill:none;stroke:#507ACE;stroke-width:5;stroke-linecap:round;stroke-linejoin:round;stroke-miterlimit:10;}
	.st2{fill:none;stroke:#9AA5BA;stroke-width:5;stroke-linecap:round;stroke-linejoin:round;stroke-miterlimit:10;}
	.st3{fill:none;stroke:#2035EF;stroke-width:5;stroke-linecap:round;stroke-linejoin:round;stroke-miterlimit:10;}
</style>
<g>
	<line class="st0" x1="399.6" y1="769" x2="384.4" y2="754.7"/>
	<line class="st0" x1="384.9" y1="769.5" x2="399.2" y2="754.2"/>
</g>
<g>
	<line class="st0" x1="272.1" y1="171.1" x2="256.9" y2="156.8"/>
	<line class="st0" x1="257.3" y1="171.6" x2="271.6" y2="156.3"/>
</g>
<g>
	<line class="st1" x1="136.3" y1="581.2" x2="121.1" y2="566.9"/>
	<line class="st1" x1="121.5" y1="581.7" x2="135.8" y2="566.4"/>
</g>
<g>
	<line class="st2" x1="103.4" y1="214.4" x2="88.1" y2="200.1"/>
	<line class="st2" x1="88.6" y1="214.9" x2="102.9" y2="199.6"/>
</g>
<g>
	<line class="st1" x1="717.9" y1="294.7" x2="702.6" y2="280.4"/>
	<line class="st1" x1="703.1" y1="295.1" x2="717.4" y2="279.9"/>
</g>
<g>
	<line class="st0" x1="494.8" y1="1020.4" x2="479.6" y2="1006.1"/>
	<line class="st0" x1="480" y1="1020.9" x2="494.3" y2="1005.6"/>
</g>
<g>
	<line class="st1" x1="305.5" y1="498.6" x2="290.2" y2="484.3"/>
	<line class="st1" x1="290.7" y1="499.1" x2="305" y2="483.9"/>
</g>
<g>
	<line class="st0" x1="541.3" y1="618" x2="526" y2="603.7"/>
	<line class="st0" x1="526.5" y1="618.5" x2="540.8" y2="603.2"/>
</g>
<polygon class="st2" points="225.1,287.5 214.6,269.3 204.2,287.5 193.7,305.7 214.7,305.7 235.6,305.7 "/>
<polygon class="st1" points="641.9,856.1 631.4,837.9 621,856.1 610.5,874.3 631.5,874.2 652.4,874.2 "/>
<polygon class="st3" points="558.7,1163.8 548.2,1145.7 537.7,1163.8 527.2,1182 548.2,1182 569.2,1182 "/>
<polygon class="st0" points="787.8,1087.8 793.3,1067.6 773,1073 752.7,1078.5 767.6,1093.3 782.4,1108.1 "/>
<polygon class="st1" points="411.2,72 416.6,51.7 396.4,57.2 376.1,62.6 390.9,77.4 405.8,92.3 "/>
<polygon class="st1" points="294.8,1331.7 300.2,1311.5 279.9,1316.9 259.7,1322.4 274.5,1337.2 289.4,1352 "/>
<polygon class="st2" points="1009.6,256 1027.7,245.5 1009.6,235.1 991.4,224.6 991.4,245.5 991.4,266.5 "/>
<polygon class="st0" points="827.5,859.3 845.6,848.8 827.4,838.3 809.3,827.8 809.3,848.8 809.3,869.8 "/>
<circle class="st0" cx="186.9" cy="1013.3" r="15.9"/>
<circle class="st3" cx="484.4" cy="245.5" r="15.9"/>
<circle class="st3" cx="453" cy="872" r="15.9"/>
<path class="st2" d="M425.1,1367.9c-8.8,0-15.9-7.1-15.9-15.9c0-8.8,7.1-15.9,15.9-15.9"/>
<path class="st3" d="M360.2,1124c0-8.8,7.1-15.9,15.9-15.9s15.9,7.1,15.9,15.9"/>
<path class="st3" d="M173.6,52.6c0-8.8,7.1-15.9,15.8-15.9c8.7,0,15.8,7.1,15.8,15.9"/>
<path class="st1" d="M439.4,395.3c-8.8,0-15.9-7.1-15.9-15.8c0-8.7,7.1-15.8,15.9-15.8"/>
<path class="st3" d="M243.6,751.4c-8.8,0-15.9-7.1-15.9-15.8c0-8.7,7.1-15.8,15.9-15.8"/>
<path class="st3" d="M617.6,257.1c-8.8,0-15.9-7.1-15.9-15.8c0-8.7,7.1-15.8,15.9-15.8"/>
<circle class="st1" cx="738.1" cy="1232" r="15.9"/>
<circle class="st0" cx="47.9" cy="406.3" r="15.9"/>
<rect x="782.3" y="491.5" class="st3" width="31.7" height="31.7"/>
<rect x="608.4" y="1035.9" class="st2" width="31.7" height="31.7"/>
<rect x="120.1" y="1494.3" class="st2" width="31.7" height="31.7"/>
<rect x="649.5" y="691.6" class="st3" width="31.7" height="31.7"/>
<rect x="975.6" y="558.2" class="st2" width="31.7" height="31.7"/>
<g>
	<path class="st0" d="M548.2,1434c-6.9,0-5.7-12.3-14.5-12.3"/>
	<path class="st0" d="M577.3,1434c-6.9,0-5.7-12.3-14.5-12.3"/>
	<path class="st0" d="M548.2,1434c6.9,0,5.7-12.3,14.5-12.3"/>
	<path class="st0" d="M591.8,1421.7"/>
	<path class="st0" d="M577.3,1434c6.9,0,5.7-12.3,14.5-12.3"/>
</g>
<g>
	<path class="st1" d="M555.5,735.6c-6.9,0-5.7-12.3-14.5-12.3"/>
	<path class="st1" d="M584.5,735.6c-6.9,0-5.7-12.3-14.5-12.3"/>
	<path class="st1" d="M555.5,735.6c6.9,0,5.7-12.3,14.5-12.3"/>
	<path class="st1" d="M599.1,723.3"/>
	<path class="st1" d="M584.5,735.6c6.9,0,5.7-12.3,14.5-12.3"/>
</g>
<g>
	<path class="st2" d="M663,406.5c-6.9,0-5.7-12.3-14.5-12.3"/>
	<path class="st2" d="M692.1,406.5c-6.9,0-5.7-12.3-14.5-12.3"/>
	<path class="st2" d="M663,406.5c6.9,0,5.7-12.3,14.5-12.3"/>
	<path class="st2" d="M706.6,394.3"/>
	<path class="st2" d="M692.1,406.5c6.9,0,5.7-12.3,14.5-12.3"/>
</g>
<g>
	<path class="st0" d="M99.6,816.3c-6.9,0-5.7-12.3-14.5-12.3"/>
	<path class="st0" d="M128.7,816.3c-6.9,0-5.7-12.3-14.5-12.3"/>
	<path class="st0" d="M99.6,816.3c6.9,0,5.7-12.3,14.5-12.3"/>
	<path class="st0" d="M143.2,804"/>
	<path class="st0" d="M128.7,816.3c6.9,0,5.7-12.3,14.5-12.3"/>
</g>
<g>
	<path class="st1" d="M839.7,714c0,6.9-12.3,5.7-12.3,14.5"/>
	<path class="st1" d="M839.7,685c0,6.9-12.3,5.7-12.3,14.5"/>
	<path class="st1" d="M839.7,714c0-6.9-12.3-5.7-12.3-14.5"/>
	<path class="st1" d="M827.4,670.4"/>
	<path class="st1" d="M839.7,685c0-6.9-12.3-5.7-12.3-14.5"/>
</g>
<g>
	<path class="st3" d="M70,1111.2c0,6.9-12.3,5.7-12.3,14.5"/>
	<path class="st3" d="M70,1082.1c0,6.9-12.3,5.7-12.3,14.5"/>
	<path class="st3" d="M70,1111.2c0-6.9-12.3-5.7-12.3-14.5"/>
	<path class="st3" d="M57.7,1067.6"/>
	<path class="st3" d="M70,1082.1c0-6.9-12.3-5.7-12.3-14.5"/>
</g>
<g>
	<path class="st0" d="M366.3,195.4c0,6.9-12.3,5.7-12.3,14.5"/>
	<path class="st0" d="M366.3,166.3c0,6.9-12.3,5.7-12.3,14.5"/>
	<path class="st0" d="M366.3,195.4c0-6.9-12.3-5.7-12.3-14.5"/>
	<path class="st0" d="M354.1,151.8"/>
	<path class="st0" d="M366.3,166.3c0-6.9-12.3-5.7-12.3-14.5"/>
</g>
<g>
	<path class="st3" d="M738.1,870.6c0,6.9-12.3,5.7-12.3,14.5"/>
	<path class="st3" d="M738.1,841.6c0,6.9-12.3,5.7-12.3,14.5"/>
	<path class="st3" d="M738.1,870.6c0-6.9-12.3-5.7-12.3-14.5"/>
	<path class="st3" d="M725.8,827"/>
	<path class="st3" d="M738.1,841.6c0-6.9-12.3-5.7-12.3-14.5"/>
</g>
<line class="st0" x1="279.9" y1="589.9" x2="315.8" y2="589.9"/>
<line class="st3" x1="154.9" y1="436.3" x2="190.7" y2="436.3"/>
<line class="st1" x1="537.5" y1="76" x2="573.4" y2="76"/>
<line class="st1" x1="827.4" y1="253.6" x2="863.3" y2="253.6"/>
<line class="st0" x1="697.6" y1="193.6" x2="722.9" y2="168.2"/>
<line class="st3" x1="108.7" y1="134.8" x2="134.1" y2="109.5"/>
<line class="st3" x1="514.6" y1="491.5" x2="539.9" y2="466.1"/>
<path class="st1" d="M428.5,579.3c-2.9,1.8-6.8,1-8.6-2c-1.8-2.9-1-6.8,2-8.6c2.9-1.8,6.8-1,8.6,2
	C432.3,573.6,431.4,577.5,428.5,579.3z"/>
<ellipse transform="matrix(0.8464 -0.5326 0.5326 0.8464 -112.4262 234.1474)" class="st0" cx="349.6" cy="311.9" rx="6.3" ry="6.3"/>
<ellipse transform="matrix(0.8464 -0.5326 0.5326 0.8464 -235.2154 184.8541)" class="st1" cx="202.8" cy="500.2" rx="6.3" ry="6.3"/>
<ellipse transform="matrix(0.8464 -0.5326 0.5326 0.8464 -66.7876 527.3657)" class="st0" cx="880.7" cy="379.4" rx="6.3" ry="6.3"/>
<ellipse transform="matrix(0.8464 -0.5326 0.5326 0.8464 -170.9847 453.3519)" class="st0" cx="700.4" cy="523.1" rx="6.3" ry="6.3"/>
</svg>
