<?xml version="1.0" encoding="utf-8"?>
<!-- Generator: Adobe Illustrator 21.0.2, SVG Export Plug-In . SVG Version: 6.00 Build 0)  -->
<svg version="1.1" id="Layer_1" xmlns="http://www.w3.org/2000/svg" xmlns:xlink="http://www.w3.org/1999/xlink" x="0px" y="0px"
	 viewBox="0 0 1428 1576" style="enable-background:new 0 0 1428 1576;" xml:space="preserve">
<rect x="285.6" y="-2.9" style="fill:#EDEDED;" width="1142.4" height="5.8"/>
<rect x="285.6" y="113" style="fill:#EDEDED;" width="1142.4" height="5.8"/>
<rect x="285.6" y="228.9" style="fill:#EDEDED;" width="1142.4" height="5.8"/>
<rect x="285.6" y="344.8" style="fill:#EDEDED;" width="1142.4" height="5.8"/>
<rect x="285.6" y="460.8" style="fill:#EDEDED;" width="1142.4" height="5.8"/>
<rect x="285.6" y="576.7" style="fill:#EDEDED;" width="1142.4" height="5.8"/>
<rect x="285.6" y="692.6" style="fill:#EDEDED;" width="1142.4" height="5.8"/>
<rect x="285.6" y="808.5" style="fill:#EDEDED;" width="1142.4" height="5.8"/>
<rect x="285.6" y="924.4" style="fill:#EDEDED;" width="1142.4" height="5.8"/>
<rect x="285.6" y="1040.3" style="fill:#EDEDED;" width="1142.4" height="5.8"/>
<rect x="285.6" y="1156.2" style="fill:#EDEDED;" width="1142.4" height="5.8"/>
<rect x="285.6" y="1272.1" style="fill:#EDEDED;" width="1142.4" height="5.8"/>
<rect x="285.6" y="1388.1" style="fill:#EDEDED;" width="1142.4" height="5.8"/>
<rect x="285.6" y="1504" style="fill:#EDEDED;" width="1142.4" height="5.8"/>
<rect x="285.6" y="55.1" style="fill:#EDEDED;" width="1142.4" height="5.8"/>
<rect x="285.6" y="171" style="fill:#EDEDED;" width="1142.4" height="5.8"/>
<rect x="285.6" y="286.9" style="fill:#EDEDED;" width="1142.4" height="5.8"/>
<rect x="285.6" y="402.8" style="fill:#EDEDED;" width="1142.4" height="5.8"/>
<rect x="285.6" y="518.7" style="fill:#EDEDED;" width="1142.4" height="5.8"/>
<rect x="285.6" y="634.6" style="fill:#EDEDED;" width="1142.4" height="5.8"/>
<rect x="285.6" y="750.5" style="fill:#EDEDED;" width="1142.4" height="5.8"/>
<rect x="285.6" y="866.5" style="fill:#EDEDED;" width="1142.4" height="5.8"/>
<rect x="285.6" y="982.4" style="fill:#EDEDED;" width="1142.4" height="5.8"/>
<rect x="285.6" y="1098.3" style="fill:#EDEDED;" width="1142.4" height="5.8"/>
<rect x="285.6" y="1214.2" style="fill:#EDEDED;" width="1142.4" height="5.8"/>
<rect x="285.6" y="1330.1" style="fill:#EDEDED;" width="1142.4" height="5.8"/>
<rect x="285.6" y="1446" style="fill:#EDEDED;" width="1142.4" height="5.8"/>
<rect x="285.6" y="1561.9" style="fill:#EDEDED;" width="1142.4" height="5.8"/>
<rect x="0" y="-2.9" style="fill:#EDEDED;" width="1142.4" height="5.8"/>
<rect x="0" y="113" style="fill:#EDEDED;" width="1142.4" height="5.8"/>
<rect x="0" y="228.9" style="fill:#EDEDED;" width="1142.4" height="5.8"/>
<rect x="0" y="344.8" style="fill:#EDEDED;" width="1142.4" height="5.8"/>
<rect x="0" y="460.8" style="fill:#EDEDED;" width="1142.4" height="5.8"/>
<rect x="0" y="576.7" style="fill:#EDEDED;" width="1142.4" height="5.8"/>
<rect x="0" y="692.6" style="fill:#EDEDED;" width="1142.4" height="5.8"/>
<rect x="0" y="808.5" style="fill:#EDEDED;" width="1142.4" height="5.8"/>
<rect x="0" y="924.4" style="fill:#EDEDED;" width="1142.4" height="5.8"/>
<rect x="0" y="1040.3" style="fill:#EDEDED;" width="1142.4" height="5.8"/>
<rect x="0" y="1156.2" style="fill:#EDEDED;" width="1142.4" height="5.8"/>
<rect x="0" y="1272.1" style="fill:#EDEDED;" width="1142.4" height="5.8"/>
<rect x="0" y="1388.1" style="fill:#EDEDED;" width="1142.4" height="5.8"/>
<rect x="0" y="1504" style="fill:#EDEDED;" width="1142.4" height="5.8"/>
<rect x="0" y="55.1" style="fill:#EDEDED;" width="1142.4" height="5.8"/>
<rect x="0" y="171" style="fill:#EDEDED;" width="1142.4" height="5.8"/>
<rect x="0" y="286.9" style="fill:#EDEDED;" width="1142.4" height="5.8"/>
<rect x="0" y="402.8" style="fill:#EDEDED;" width="1142.4" height="5.8"/>
<rect x="0" y="518.7" style="fill:#EDEDED;" width="1142.4" height="5.8"/>
<rect x="0" y="634.6" style="fill:#EDEDED;" width="1142.4" height="5.8"/>
<rect x="0" y="750.5" style="fill:#EDEDED;" width="1142.4" height="5.8"/>
<rect x="0" y="866.5" style="fill:#EDEDED;" width="1142.4" height="5.8"/>
<rect x="0" y="982.4" style="fill:#EDEDED;" width="1142.4" height="5.8"/>
<rect x="0" y="1098.3" style="fill:#EDEDED;" width="1142.4" height="5.8"/>
<rect x="0" y="1214.2" style="fill:#EDEDED;" width="1142.4" height="5.8"/>
<rect x="0" y="1330.1" style="fill:#EDEDED;" width="1142.4" height="5.8"/>
<rect x="0" y="1446" style="fill:#EDEDED;" width="1142.4" height="5.8"/>
<rect x="0" y="1561.9" style="fill:#EDEDED;" width="1142.4" height="5.8"/>
</svg>
