<svg id="Capa_3" data-name="Capa 3" xmlns="http://www.w3.org/2000/svg" viewBox="0 0 713.46 725.33"><defs><style>.cls-1{fill:#1d1d1b;}.cls-10,.cls-11,.cls-13,.cls-14,.cls-15,.cls-16,.cls-17,.cls-18,.cls-19,.cls-2,.cls-4,.cls-5,.cls-6,.cls-7,.cls-8{fill:none;}.cls-13,.cls-2,.cls-6,.cls-7{stroke:#f8f0dc;}.cls-13,.cls-16,.cls-17,.cls-19,.cls-2,.cls-5,.cls-6,.cls-8,.cls-9{stroke-miterlimit:10;}.cls-3{fill:#ff6200;}.cls-10,.cls-16,.cls-4,.cls-5{stroke:#000;}.cls-10,.cls-11,.cls-14,.cls-15,.cls-18,.cls-4,.cls-7{stroke-linecap:round;stroke-linejoin:round;}.cls-4{stroke-width:3px;}.cls-6{stroke-width:1.91px;}.cls-7{stroke-width:3.09px;}.cls-14,.cls-15,.cls-18,.cls-8,.cls-9{stroke:#1d1d1b;}.cls-8,.cls-9{stroke-width:1.76px;}.cls-10,.cls-11{stroke-width:2.23px;}.cls-11,.cls-17,.cls-19{stroke:#ff6200;}.cls-12{fill:#f8f0dc;}.cls-13{stroke-width:1.82px;}.cls-14{stroke-width:1.55px;}.cls-15{stroke-width:6.55px;}.cls-16,.cls-17,.cls-18{stroke-width:2px;}</style></defs><title>music_art</title><g id="_Grupo_" data-name="&lt;Grupo&gt;"><g id="_Grupo_2" data-name="&lt;Grupo&gt;"><g id="_Grupo_3" data-name="&lt;Grupo&gt;"><path id="_Trazado_" data-name="&lt;Trazado&gt;" class="cls-1" d="M823.65,826.51S643.1,765.23,635,667.23C628.58,588.49,744.81,560,744.81,560l-5.41-16.45,35,16.45L749.54,599.8V571.08s-69.2,25.34-71,83.53c-2,64.79,146.87,112.45,146.87,112.45Z" transform="translate(-602.71 -177.7)"/><path id="_Trazado_2" data-name="&lt;Trazado&gt;" class="cls-2" d="M819.82,820.85c-12.94-4.87-51.35-19.06-87-40.71-40.57-24.66-89.78-64.32-93.8-113.23-2.55-31,14.45-57.73,50.53-79.4a230.67,230.67,0,0,1,56.2-23.64,4,4,0,0,0,2.85-5.13l-2.51-7.63,22.51,10.58-15.07,24.15V571.08a4,4,0,0,0-5.38-3.76,147.66,147.66,0,0,0-35.9,20.54c-23.9,18.56-36.95,41.6-37.72,66.62-1.94,62.65,125.6,108.14,146.78,115.41Z" transform="translate(-602.71 -177.7)"/></g><g id="_Grupo_4" data-name="&lt;Grupo&gt;"><path id="_Trazado_3" data-name="&lt;Trazado&gt;" class="cls-1" d="M1127.55,768.46s77.24-2,140-94.13l48.59,56.45s-72,101.08-196.4,98.38Z" transform="translate(-602.71 -177.7)"/><g id="_Grupo_5" data-name="&lt;Grupo&gt;"><path id="_Trazado_4" data-name="&lt;Trazado&gt;" class="cls-2" d="M1124.31,825.21l6.79-53c6.86-.69,23.34-3.23,44.53-12.61,24.5-10.84,60.08-33.26,92.29-78.75L1311,730.94a262.9,262.9,0,0,1-47.73,46c-29.32,22-77.16,48.25-138.63,48.25Z" transform="translate(-602.71 -177.7)"/></g></g></g><g id="_Grupo_6" data-name="&lt;Grupo&gt;"><g id="radio-text"><path id="_Trazado_compuesto_" data-name="&lt;Trazado compuesto&gt;" class="cls-3" d="M822.53,715l-6.77,138.35,13.81-.54,6.23-63L861,853l17.57-.31-31.92-72.46s42.24-10.83,39.8-40.61S822.53,715,822.53,715Zm50.88,31.22c-1.36,18.41-37.61,22.93-37.61,22.93l1-43.86C853.86,724.72,874.75,728.11,873.41,746.19Z" transform="translate(-602.71 -177.7)"/><path id="_Trazado_compuesto_2" data-name="&lt;Trazado compuesto&gt;" class="cls-3" d="M902.67,721.47,892.11,851.15h13.56l4.83-64.84h13.93l6.39,64.84h12.72L931.64,721.47Zm7.85,55.77,3.25-44.4h7.58l2.87,44.4Z" transform="translate(-602.71 -177.7)"/><path id="_Trazado_compuesto_3" data-name="&lt;Trazado compuesto&gt;" class="cls-3" d="M953.28,721.47l1.9,129.69s64.46-14.35,64.46-63.63S977.92,721.47,953.28,721.47Zm16.91,110.11V733.84s35.07,8.86,35.07,52.15C1005.26,823.93,970.19,831.58,970.19,831.58Z" transform="translate(-602.71 -177.7)"/><polygon id="_Trazado_5" data-name="&lt;Trazado&gt;" class="cls-3" points="425.86 543.76 430.19 673.45 442.64 673.45 441.83 543.76 425.86 543.76"/><path id="_Trazado_compuesto_4" data-name="&lt;Trazado compuesto&gt;" class="cls-3" d="M1091.68,718.22c-25.16,0-35.84,27.89-35.84,70.39s21.49,62.54,38.55,62.54,36.93-18.41,36.93-68.23S1112.64,718.22,1091.68,718.22Zm5.52,121c-17.87,0-23-36.82-23-62s4.23-42.51,19.39-42.51c15.43,0,21.66,19.22,21.66,41.15S1114.8,839.24,1097.2,839.24Z" transform="translate(-602.71 -177.7)"/></g><g id="day-text"><path id="_Trazado_6" data-name="&lt;Trazado&gt;" class="cls-4" d="M855,884.19c3.25,8.93,65.79-16.79,68-15.43,0,0-10.54,2.45-15.7,11.64-6.23,11.1-.76,17,6,12.45,10.88-7.37,29.78-37.63,25.18-37.9s-20.58,29.78-12.18,33,32.32-11.8,32.32-11.8" transform="translate(-602.71 -177.7)"/><path id="_Trazado_7" data-name="&lt;Trazado&gt;" class="cls-4" d="M977.17,865.31s-2.35-10-9-3.87c-9.73,8.93-13,22.2-8.39,22.47s21.66-24.64,21.66-24.64-11.1,20-5.14,22.74,25.45-27.07,25.45-27.07-7.31,18.27-1.08,19.42S1018,854.94,1018,854.94s-7.85,47.65-14.89,46.57,13.14-43.51,58.21-46.57" transform="translate(-602.71 -177.7)"/></g><g id="_Grupo_7" data-name="&lt;Grupo&gt;"><path class="cls-3" d="M813.06,874.67c6.9-2,13.83-3.9,20.78-5.72,3.47-.92,7-1.81,10.43-2.69s7-1.76,10.45-2.6l4.06-1L856,865.85c-2.54,2.92-5.06,5.85-7.63,8.74l-7.68,8.69-1.48-2.45L855,877.06c5.25-1.21,10.5-2.46,15.76-3.61s10.53-2.32,15.81-3.44,10.56-2.18,15.88-3.15c-5.16,1.6-10.34,3.08-15.53,4.57s-10.39,2.9-15.6,4.28-10.43,2.74-15.64,4.1l-15.68,3.94-4.74,1.19,3.27-3.64,7.75-8.63c2.57-2.89,5.19-5.73,7.8-8.59l1.3,2.19q-5.26,1.16-10.53,2.25c-3.51.74-7,1.47-10.55,2.17C827.2,872.1,820.14,873.45,813.06,874.67Z" transform="translate(-602.71 -177.7)"/></g><g id="_Grupo_8" data-name="&lt;Grupo&gt;"><path class="cls-3" d="M1040.48,869.84c4.33-1.39,8.68-2.72,13-4s8.72-2.55,13.09-3.79,8.75-2.47,13.13-3.64,8.77-2.38,13.17-3.51l4.34-1.12-2.86,3.46c-2.39,2.89-4.74,5.81-7.15,8.68l-7.21,8.63-1.6-2.27,11.7-4,11.73-3.95c3.93-1.27,7.84-2.58,11.78-3.81s7.88-2.46,11.85-3.63q-5.7,2.44-11.44,4.76c-3.82,1.57-7.67,3.06-11.5,4.59L1091,870.64,1079.42,875l-5,1.87,3.4-4.15L1085,864c2.37-2.9,4.8-5.76,7.2-8.65l1.49,2.35c-4.4,1.12-8.82,2.19-13.23,3.26s-8.84,2.1-13.26,3.13-8.86,2-13.3,3S1045,869,1040.48,869.84Z" transform="translate(-602.71 -177.7)"/></g><g id="_Grupo_9" data-name="&lt;Grupo&gt;"><path id="_Trazado_8" data-name="&lt;Trazado&gt;" class="cls-4" d="M1145,732.84c-.81.27,5.41-4.33,5.41-4.33" transform="translate(-602.71 -177.7)"/><line id="_Trazado_9" data-name="&lt;Trazado&gt;" class="cls-4" x1="476.13" y1="522.83" x2="479.65" y2="513.08"/><line id="_Trazado_10" data-name="&lt;Trazado&gt;" class="cls-4" x1="386.57" y1="516.92" x2="386.57" y2="507.18"/><line id="_Trazado_11" data-name="&lt;Trazado&gt;" class="cls-4" x1="277.74" y1="521.74" x2="275.35" y2="509.24"/><line id="_Trazado_12" data-name="&lt;Trazado&gt;" class="cls-4" x1="204.49" y1="540.13" x2="193.76" y2="536.04"/><line id="_Trazado_13" data-name="&lt;Trazado&gt;" class="cls-4" x1="201.41" y1="673.45" x2="194.1" y2="681.03"/><line id="_Trazado_14" data-name="&lt;Trazado&gt;" class="cls-4" x1="531.45" y1="665.6" x2="539.03" y2="671.55"/></g><g id="_Grupo_10" data-name="&lt;Grupo&gt;"><line id="_Trazado_15" data-name="&lt;Trazado&gt;" class="cls-5" x1="215.5" y1="671.32" x2="225.04" y2="671.32"/><line id="_Trazado_16" data-name="&lt;Trazado&gt;" class="cls-5" x1="215.5" y1="664.49" x2="225.04" y2="664.49"/><line id="_Trazado_17" data-name="&lt;Trazado&gt;" class="cls-5" x1="216.08" y1="658.87" x2="225.62" y2="658.87"/><line id="_Trazado_18" data-name="&lt;Trazado&gt;" class="cls-5" x1="216.85" y1="652.66" x2="226.39" y2="652.66"/><line id="_Trazado_19" data-name="&lt;Trazado&gt;" class="cls-5" x1="217.35" y1="646.53" x2="226.9" y2="646.53"/></g><g id="_Grupo_11" data-name="&lt;Grupo&gt;"><line id="_Trazado_20" data-name="&lt;Trazado&gt;" class="cls-5" x1="291.74" y1="670.32" x2="301.29" y2="670.32"/><line id="_Trazado_21" data-name="&lt;Trazado&gt;" class="cls-5" x1="291.74" y1="663.49" x2="301.29" y2="663.49"/><line id="_Trazado_22" data-name="&lt;Trazado&gt;" class="cls-5" x1="292.32" y1="657.87" x2="301.87" y2="657.87"/><line id="_Trazado_23" data-name="&lt;Trazado&gt;" class="cls-5" x1="293.09" y1="651.66" x2="302.64" y2="651.66"/><line id="_Trazado_24" data-name="&lt;Trazado&gt;" class="cls-5" x1="293.6" y1="645.53" x2="303.14" y2="645.53"/></g><g id="_Grupo_12" data-name="&lt;Grupo&gt;"><line id="_Trazado_25" data-name="&lt;Trazado&gt;" class="cls-5" x1="353.85" y1="667.88" x2="362.4" y2="667.88"/><line id="_Trazado_26" data-name="&lt;Trazado&gt;" class="cls-5" x1="353.85" y1="661.05" x2="377.69" y2="661.05"/><line id="_Trazado_27" data-name="&lt;Trazado&gt;" class="cls-5" x1="354.43" y1="655.43" x2="386.19" y2="655.43"/><line id="_Trazado_28" data-name="&lt;Trazado&gt;" class="cls-5" x1="383.97" y1="649.23" x2="394.59" y2="649.23"/><line id="_Trazado_29" data-name="&lt;Trazado&gt;" class="cls-5" x1="354.2" y1="649.23" x2="365.52" y2="649.23"/><line id="_Trazado_30" data-name="&lt;Trazado&gt;" class="cls-5" x1="390.96" y1="643.09" x2="400.7" y2="643.09"/><line id="_Trazado_31" data-name="&lt;Trazado&gt;" class="cls-5" x1="354.71" y1="643.09" x2="365.38" y2="643.09"/></g><g id="_Grupo_13" data-name="&lt;Grupo&gt;"><line id="_Trazado_32" data-name="&lt;Trazado&gt;" class="cls-5" x1="339.57" y1="670.32" x2="330.03" y2="670.32"/><line id="_Trazado_33" data-name="&lt;Trazado&gt;" class="cls-5" x1="337.57" y1="663.49" x2="330.03" y2="663.49"/><line id="_Trazado_34" data-name="&lt;Trazado&gt;" class="cls-5" x1="337.99" y1="657.87" x2="329.45" y2="657.87"/><line id="_Trazado_35" data-name="&lt;Trazado&gt;" class="cls-5" x1="337.22" y1="651.66" x2="328.68" y2="651.66"/><line id="_Trazado_36" data-name="&lt;Trazado&gt;" class="cls-5" x1="335.72" y1="645.53" x2="328.17" y2="645.53"/></g><g id="_Grupo_14" data-name="&lt;Grupo&gt;"><line id="_Trazado_37" data-name="&lt;Trazado&gt;" class="cls-5" x1="440.91" y1="670.32" x2="432.37" y2="670.32"/><line id="_Trazado_38" data-name="&lt;Trazado&gt;" class="cls-5" x1="439.91" y1="663.49" x2="432.37" y2="663.49"/><line id="_Trazado_39" data-name="&lt;Trazado&gt;" class="cls-5" x1="440.33" y1="657.87" x2="431.79" y2="657.87"/><line id="_Trazado_40" data-name="&lt;Trazado&gt;" class="cls-5" x1="440.56" y1="651.66" x2="431.01" y2="651.66"/><line id="_Trazado_41" data-name="&lt;Trazado&gt;" class="cls-5" x1="441.06" y1="645.53" x2="430.51" y2="645.53"/></g><g id="_Grupo_15" data-name="&lt;Grupo&gt;"><line id="_Trazado_42" data-name="&lt;Trazado&gt;" class="cls-5" x1="272.06" y1="671.32" x2="258.95" y2="671.32"/><line id="_Trazado_43" data-name="&lt;Trazado&gt;" class="cls-5" x1="268.57" y1="664.49" x2="256.51" y2="664.49"/><line id="_Trazado_44" data-name="&lt;Trazado&gt;" class="cls-5" x1="266.27" y1="658.87" x2="254.21" y2="658.87"/><line id="_Trazado_45" data-name="&lt;Trazado&gt;" class="cls-5" x1="263.23" y1="652.66" x2="252.56" y2="652.66"/><line id="_Trazado_46" data-name="&lt;Trazado&gt;" class="cls-5" x1="259.87" y1="646.53" x2="252.05" y2="646.53"/></g><g id="_Grupo_16" data-name="&lt;Grupo&gt;"><line id="_Trazado_47" data-name="&lt;Trazado&gt;" class="cls-5" x1="461.94" y1="644.16" x2="474.79" y2="644.16"/><line id="_Trazado_48" data-name="&lt;Trazado&gt;" class="cls-5" x1="465.63" y1="651.66" x2="477.45" y2="651.66"/><line id="_Trazado_49" data-name="&lt;Trazado&gt;" class="cls-5" x1="470.16" y1="660.26" x2="483.94" y2="660.26"/><line id="_Trazado_50" data-name="&lt;Trazado&gt;" class="cls-5" x1="477.45" y1="666.57" x2="504.56" y2="666.57"/><line id="_Trazado_51" data-name="&lt;Trazado&gt;" class="cls-5" x1="487.11" y1="670.96" x2="497.69" y2="670.96"/><line id="_Trazado_52" data-name="&lt;Trazado&gt;" class="cls-5" x1="511.05" y1="643.48" x2="520.62" y2="643.48"/><line id="_Trazado_53" data-name="&lt;Trazado&gt;" class="cls-5" x1="509.07" y1="652.24" x2="517.53" y2="652.24"/><line id="_Trazado_54" data-name="&lt;Trazado&gt;" class="cls-5" x1="504.56" y1="660.26" x2="512.63" y2="660.26"/></g></g><g id="_Grupo_17" data-name="&lt;Grupo&gt;"><path id="orange" class="cls-3" d="M1222.58,243.63V384.46c0,14.46-1.91,26.12-22.63,20.71,0,0,5.1,14.23,22.63,14.23,0,0,1,44.54,40.15,44.54,35.37,0,46.21-17,46.21-65.46V243.63c0-28.08-18.16-42.71-42.7-42.71S1222.58,215.3,1222.58,243.63Z" transform="translate(-602.71 -177.7)"/><path id="_Trazado_55" data-name="&lt;Trazado&gt;" class="cls-6" d="M1262.74,456.29c-31.35,0-32.48-35.54-32.51-37.06a7.65,7.65,0,0,0-7.65-7.48,21.63,21.63,0,0,1-2.72-.17c10.37-6,10.37-20.72,10.37-27.12V243.63c0-22,13.46-35.06,36-35.06,21.95,0,35.05,13.11,35.05,35.06V398.48C1301.29,447.95,1289.4,456.29,1262.74,456.29Z" transform="translate(-602.71 -177.7)"/><g id="_Grupo_18" data-name="&lt;Grupo&gt;"><polyline id="_Trazado_56" data-name="&lt;Trazado&gt;" class="cls-7" points="641.1 203 641.1 153.6 654.87 190.14 663.3 153.6 666.4 203"/><path id="_Trazado_57" data-name="&lt;Trazado&gt;" class="cls-7" d="M1274.17,328.22s-1.69,52.49,7.87,52.49,6.46-52.49,6.46-52.49" transform="translate(-602.71 -177.7)"/><path id="_Trazado_58" data-name="&lt;Trazado&gt;" class="cls-7" d="M1261.35,387.93s-17.28-.26-17.54,6.72,19.14.78,19.14,9.57c0,5.17-4.66,11.12-19.14,11.12" transform="translate(-602.71 -177.7)"/><line id="_Trazado_59" data-name="&lt;Trazado&gt;" class="cls-7" x1="666.45" y1="210.23" x2="666.45" y2="237.64"/><path id="_Trazado_60" data-name="&lt;Trazado&gt;" class="cls-7" d="M1287,387.93s-8.77-.65-10.35,9.05c-1.81,11.12,3.1,17.07,10.35,16.81" transform="translate(-602.71 -177.7)"/></g><g id="_Grupo_19" data-name="&lt;Grupo&gt;"><polyline id="_Trazado_61" data-name="&lt;Trazado&gt;" class="cls-8" points="648.55 116.56 648.55 74.18 684.56 68.12 684.56 110.19"/><polygon id="_Trazado_62" data-name="&lt;Trazado&gt;" class="cls-9" points="648.55 87.9 684.56 81.53 684.56 68.12 648.55 74.18 648.55 87.9"/><circle id="_Trazado_63" data-name="&lt;Trazado&gt;" cx="642.49" cy="116.56" r="6.21"/><circle id="_Trazado_64" data-name="&lt;Trazado&gt;" cx="678.34" cy="110.35" r="6.21"/></g></g><g id="_Grupo_20" data-name="&lt;Grupo&gt;"><path id="_Trazado_65" data-name="&lt;Trazado&gt;" class="cls-10" d="M773.69,460.29l-35.58-15.74s5.47-87-74.43-78.91c-81.7,8.29-77.18,168.29-2.19,173,69,4.38,75-66.22,75-66.22Z" transform="translate(-602.71 -177.7)"/><path id="_Trazado_66" data-name="&lt;Trazado&gt;" d="M670.09,529.79c-1.84,0-3.73-.06-5.63-.18-19-1.21-30.7-13.81-37.18-24.16-8.79-14-13.84-32.83-14.21-52.92-.39-20.84,4.28-40.51,13.16-55.39,6.71-11.24,19.21-25.09,40.67-27.26a94.58,94.58,0,0,1,9.5-.5c16.87,0,30.27,5.17,39.85,15.37,19.76,21,17.77,56.63,17.75,57a6.68,6.68,0,0,0,4,6.52l19.66,8.7-20.68,6.76a6.68,6.68,0,0,0-4.58,5.78c-.22,2.45-6,60.31-62.26,60.31Z" transform="translate(-602.71 -177.7)"/><g id="bla-text-bottom"><path id="_Trazado_67" data-name="&lt;Trazado&gt;" class="cls-11" d="M639.22,449.58l-2.08-47.88s9.52.89,10.41,7.14-7.43,14.57-7.43,14.57,10.11-1.49,10.71,5.35S639.22,449.58,639.22,449.58Z" transform="translate(-602.71 -177.7)"/><polyline id="_Trazado_68" data-name="&lt;Trazado&gt;" class="cls-11" points="53.16 221.02 53.16 268.23 72.49 264.37"/><polyline id="_Trazado_69" data-name="&lt;Trazado&gt;" class="cls-11" points="65.05 257.75 69.51 219.54 80.52 261.17"/><line id="_Trazado_70" data-name="&lt;Trazado&gt;" class="cls-11" x1="66.73" y1="247.94" x2="76.62" y2="246.45"/></g><g id="bla-text-top"><path id="_Trazado_71" data-name="&lt;Trazado&gt;" class="cls-11" d="M652.23,463.34l3.27,45.5s19.33-7.73,18.74-18.44-18.14-6.54-18.14-6.54,11.9-7.14,11.9-15.46S652.23,463.34,652.23,463.34Z" transform="translate(-602.71 -177.7)"/><polyline id="_Trazado_72" data-name="&lt;Trazado&gt;" class="cls-11" points="71.53 275.52 79.1 329.58 104.83 319.76"/><polyline id="_Trazado_73" data-name="&lt;Trazado&gt;" class="cls-11" points="88.17 318.06 85.8 264.52 106.98 311.29"/><line id="_Trazado_74" data-name="&lt;Trazado&gt;" class="cls-11" x1="87.35" y1="302.3" x2="100.07" y2="298.01"/></g><g id="_Grupo_21" data-name="&lt;Grupo&gt;"><polygon id="_Trazado_75" data-name="&lt;Trazado&gt;" class="cls-12" points="21.46 252.95 25.66 290.15 18.38 291.76 18.38 252.95 21.46 252.95"/><circle id="_Trazado_76" data-name="&lt;Trazado&gt;" class="cls-12" cx="18.9" cy="245.71" r="2.38"/></g><g id="_Grupo_22" data-name="&lt;Grupo&gt;"><polygon id="_Trazado_77" data-name="&lt;Trazado&gt;" class="cls-12" points="102.52 256.99 114.05 305.84 117.02 305.84 110.55 254.32 102.52 256.99"/><circle id="_Trazado_78" data-name="&lt;Trazado&gt;" class="cls-12" cx="117.02" cy="312.85" r="2.53"/></g><g id="_Grupo_23" data-name="&lt;Grupo&gt;"><line id="_Trazado_79" data-name="&lt;Trazado&gt;" class="cls-13" x1="80.52" y1="225.49" x2="88.18" y2="218.35"/><line id="_Trazado_80" data-name="&lt;Trazado&gt;" class="cls-13" x1="85.8" y1="239.83" x2="96.95" y2="236.12"/><line id="_Trazado_81" data-name="&lt;Trazado&gt;" class="cls-13" x1="87.35" y1="251.36" x2="95.46" y2="252.85"/></g><g id="_Grupo_24" data-name="&lt;Grupo&gt;"><line id="_Trazado_82" data-name="&lt;Trazado&gt;" class="cls-13" x1="42.52" y1="298.01" x2="32.11" y2="298.01"/><line id="_Trazado_83" data-name="&lt;Trazado&gt;" class="cls-13" x1="44.31" y1="312.54" x2="34.42" y2="315.07"/><line id="_Trazado_84" data-name="&lt;Trazado&gt;" class="cls-13" x1="48.12" y1="328.39" x2="42.52" y2="336.12"/></g></g><g id="_Grupo_25" data-name="&lt;Grupo&gt;"><g id="_Grupo_26" data-name="&lt;Grupo&gt;"><path d="M896.23,236a52.22,52.22,0,0,0-19.52,4.21c-1.52.61-2.93,1.46-4.38,2.2a37.8,37.8,0,0,0-4,2.75,37.16,37.16,0,0,0-9.59,10.8c-.4.7-.86,1.37-1.22,2.1s-.7,1.47-1.07,2.2a51.81,51.81,0,0,0-3.2,9.31,78.75,78.75,0,0,0-2,20,50.35,50.35,0,0,1-1-20.65l.44-2.6.65-2.56c.19-.86.51-1.69.78-2.53s.52-1.7.91-2.5a40.49,40.49,0,0,1,5.33-9.27c.55-.71,1.18-1.35,1.77-2a20,20,0,0,1,1.86-1.94l2-1.79a21.88,21.88,0,0,1,2.15-1.61,41.46,41.46,0,0,1,4.58-2.78,37,37,0,0,1,4.92-2A38.81,38.81,0,0,1,896.23,236Z" transform="translate(-602.71 -177.7)"/></g><g id="_Grupo_27" data-name="&lt;Grupo&gt;"><path d="M882.36,208.69a44.44,44.44,0,0,0-4.57.36c-1.52.17-3,.4-4.52.68a73.36,73.36,0,0,0-8.83,2.16A71.8,71.8,0,0,0,848,219.25a75.54,75.54,0,0,0-7.32,5.15,69.55,69.55,0,0,0-6.56,6.06,68.16,68.16,0,0,0-10.54,14.33,77.6,77.6,0,0,0-6.72,16.56,114,114,0,0,0-3.55,17.7,157,157,0,0,0-1.1,18.16,167.51,167.51,0,0,0,.85,18.3,112.22,112.22,0,0,1-2.81-18.23q-.33-4.61-.37-9.25c0-3.09.12-6.19.33-9.28a102.07,102.07,0,0,1,3-18.4,78.81,78.81,0,0,1,6.87-17.48c.76-1.38,1.6-2.72,2.44-4.05s1.75-2.63,2.73-3.86a67.76,67.76,0,0,1,6.16-7.13A66,66,0,0,1,863.95,210a67.21,67.21,0,0,1,9.18-1.37A50,50,0,0,1,882.36,208.69Z" transform="translate(-602.71 -177.7)"/></g><g id="_Grupo_28" data-name="&lt;Grupo&gt;"><path d="M851.52,188.9c-1.74,0-3.47.2-5.18.41s-3.43.46-5.12.77a82.65,82.65,0,0,0-10,2.46A78.5,78.5,0,0,0,812.61,201a72,72,0,0,0-26.53,30c-5.87,12.24-8.75,25.82-9.86,39.49-.3,3.42-.43,6.86-.5,10.3s0,6.89.09,10.35a186.79,186.79,0,0,0,1.82,20.69,130.88,130.88,0,0,1-3.78-20.55,144.23,144.23,0,0,1-.74-21,120.18,120.18,0,0,1,2.57-20.94,96.13,96.13,0,0,1,6.8-20.1,80,80,0,0,1,5.34-9.25,66.28,66.28,0,0,1,6.58-8.41,68.11,68.11,0,0,1,7.8-7.29,63.11,63.11,0,0,1,8.81-6,73.41,73.41,0,0,1,19.68-7.67A76.51,76.51,0,0,1,841.07,189,58.9,58.9,0,0,1,851.52,188.9Z" transform="translate(-602.71 -177.7)"/></g></g><g id="_Grupo_29" data-name="&lt;Grupo&gt;"><g id="_Grupo_30" data-name="&lt;Grupo&gt;"><path class="cls-3" d="M1225.06,467l-.2.64h0Z" transform="translate(-602.71 -177.7)"/><path class="cls-3" d="M1223.74,471.45l-.18.64a.07.07,0,0,1-.14,0h0l.19-.64a.06.06,0,0,1,.12,0Z" transform="translate(-602.71 -177.7)"/><path class="cls-3" d="M1222.55,476l-.16.65a.13.13,0,0,1-.26-.06h0l.18-.64a.12.12,0,0,1,.24.06Z" transform="translate(-602.71 -177.7)"/><path class="cls-3" d="M1221.46,480.5l-.15.65a.19.19,0,1,1-.37-.08h0l.16-.65a.18.18,0,0,1,.36.09Z" transform="translate(-602.71 -177.7)"/><path class="cls-3" d="M1220.47,485.06l-.13.66a.24.24,0,0,1-.47-.09h0l.15-.65a.23.23,0,0,1,.45.1Z" transform="translate(-602.71 -177.7)"/><path class="cls-3" d="M1219.6,489.65l-.11.66a.28.28,0,1,1-.56-.09h0l.13-.66a.28.28,0,0,1,.54.1Z" transform="translate(-602.71 -177.7)"/><path class="cls-3" d="M1218.86,494.25l-.09.66a.33.33,0,1,1-.65-.09h0l.11-.66a.32.32,0,0,1,.64.1Z" transform="translate(-602.71 -177.7)"/><path class="cls-3" d="M1218.3,498.87l-.07.66a.38.38,0,0,1-.75-.07h0l.08-.67a.37.37,0,0,1,.73.08Z" transform="translate(-602.71 -177.7)"/><path class="cls-3" d="M1217.94,503.51l0,.67a.42.42,0,1,1-.84,0h0l0-.67a.42.42,0,0,1,.83.05Z" transform="translate(-602.71 -177.7)"/><path class="cls-3" d="M1217.84,508.16v.66h0a.47.47,0,1,1-.94,0h0v-.68a.46.46,0,0,1,.92,0Z" transform="translate(-602.71 -177.7)"/><path class="cls-3" d="M1218.09,512.78l.07.66h0a.51.51,0,1,1-1,.11h0l-.06-.68a.51.51,0,0,1,1-.1Z" transform="translate(-602.71 -177.7)"/><path class="cls-3" d="M1218.83,517.32l.16.64h0a.56.56,0,1,1-1.09.27h0l-.15-.67a.55.55,0,0,1,1.08-.26Z" transform="translate(-602.71 -177.7)"/><path class="cls-3" d="M1220.3,521.62l.29.58v0a.6.6,0,0,1-1.07.53h0l-.3-.62a.59.59,0,0,1,1.06-.52Z" transform="translate(-602.71 -177.7)"/><path class="cls-3" d="M1222.81,525.29l.46.43,0,0a.62.62,0,1,1-.85.91h0l-.51-.49a.62.62,0,0,1,.85-.9Z" transform="translate(-602.71 -177.7)"/><path class="cls-3" d="M1226.5,527.54l.6.16h0a.65.65,0,0,1-.34,1.26h0l-.68-.19a.65.65,0,0,1,.34-1.25Z" transform="translate(-602.71 -177.7)"/><path class="cls-3" d="M1230.89,528l.64-.05h0a.68.68,0,1,1,.11,1.36h0l-.69,0a.68.68,0,0,1-.1-1.35Z" transform="translate(-602.71 -177.7)"/><path class="cls-3" d="M1235.37,527.23l.63-.17h0a.71.71,0,1,1,.36,1.37h0l-.66.16a.7.7,0,0,1-.35-1.36Z" transform="translate(-602.71 -177.7)"/><path class="cls-3" d="M1239.75,525.85l.62-.23h0a.74.74,0,0,1,.52,1.38h0l-.64.23a.73.73,0,0,1-.51-1.38Z" transform="translate(-602.71 -177.7)"/><path class="cls-3" d="M1244,524.11l.61-.27h0a.76.76,0,0,1,.63,1.4h0l-.62.27a.76.76,0,0,1-.62-1.39Z" transform="translate(-602.71 -177.7)"/><path class="cls-3" d="M1248.23,522.12l.59-.3a.79.79,0,1,1,.72,1.41h0l-.61.29a.79.79,0,0,1-.7-1.42Z" transform="translate(-602.71 -177.7)"/><path class="cls-3" d="M1252.36,520l.59-.32a.82.82,0,0,1,.78,1.44h0l-.6.31a.82.82,0,0,1-.76-1.45Z" transform="translate(-602.71 -177.7)"/><path class="cls-3" d="M1256.44,517.74l.58-.33a.85.85,0,1,1,.84,1.48h0l-.59.32a.85.85,0,0,1-.82-1.48Z" transform="translate(-602.71 -177.7)"/><path class="cls-3" d="M1260.49,515.43l.58-.33a.88.88,0,0,1,.88,1.52h0l-.58.33a.87.87,0,0,1-.86-1.52Z" transform="translate(-602.71 -177.7)"/><path class="cls-3" d="M1264.53,513.09l.58-.34a.91.91,0,1,1,.91,1.57h0l-.58.33a.9.9,0,0,1-.9-1.56Z" transform="translate(-602.71 -177.7)"/><path class="cls-3" d="M1268.58,510.74l.58-.34a.93.93,0,0,1,.93,1.62h0l-.58.33a.93.93,0,0,1-.92-1.62Z" transform="translate(-602.71 -177.7)"/><path class="cls-3" d="M1272.65,508.42l.59-.33a1,1,0,1,1,.94,1.68h0l-.59.32a1,1,0,0,1-.93-1.68Z" transform="translate(-602.71 -177.7)"/><path class="cls-3" d="M1276.77,506.17l.6-.31a1,1,0,0,1,.91,1.74h0l-.59.31a1,1,0,1,1-.91-1.74Z" transform="translate(-602.71 -177.7)"/><path class="cls-3" d="M1281,504.07l.62-.29a1,1,0,1,1,.83,1.8h0l-.6.28h0a1,1,0,0,1-.83-1.8Z" transform="translate(-602.71 -177.7)"/><path class="cls-3" d="M1285.39,502.22l.65-.23a1,1,0,0,1,.66,1.89h0l-.62.21h0a1,1,0,0,1-.66-1.88Z" transform="translate(-602.71 -177.7)"/><path class="cls-3" d="M1290.13,501l.73-.07a1,1,0,1,1,.19,2H1291l-.61.06h-.06a1,1,0,0,1-.19-2Z" transform="translate(-602.71 -177.7)"/><path class="cls-3" d="M1295.36,502.07a8,8,0,0,1,.61.59,1,1,0,0,1-1.38,1.47l-.17-.15c-.12-.11-.22-.23-.34-.33a1,1,0,0,1,1.27-1.58Z" transform="translate(-602.71 -177.7)"/><path class="cls-3" d="M1296.47,507.48l-.3.68a1,1,0,0,1-1.88-.83h0l0-.07.24-.54,0-.08a1,1,0,0,1,1.88.83Z" transform="translate(-602.71 -177.7)"/><path class="cls-3" d="M1293.83,511.69l-.44.53a1,1,0,0,1-1.6-1.32h0v0l.41-.5v0a1,1,0,0,1,1.59,1.33Z" transform="translate(-602.71 -177.7)"/><path class="cls-3" d="M1290.61,515.21l-.48.48a1,1,0,1,1-1.48-1.48h0l.47-.46h0a1,1,0,0,1,1.47,1.48Z" transform="translate(-602.71 -177.7)"/><path class="cls-3" d="M1287.19,518.47l-.5.45a1.06,1.06,0,1,1-1.42-1.56h0l.49-.44h0a1.05,1.05,0,0,1,1.41,1.56Z" transform="translate(-602.71 -177.7)"/><path class="cls-3" d="M1283.68,521.59l-.51.44a1.06,1.06,0,1,1-1.39-1.61h0l.51-.43a1.06,1.06,0,0,1,1.39,1.61Z" transform="translate(-602.71 -177.7)"/><path class="cls-3" d="M1280.11,524.63l-.51.43a1.07,1.07,0,1,1-1.38-1.64h0l.51-.43a1.07,1.07,0,0,1,1.38,1.64Z" transform="translate(-602.71 -177.7)"/><path class="cls-3" d="M1276.52,527.63l-.52.43a1.08,1.08,0,0,1-1.39-1.67h0l.52-.43a1.08,1.08,0,0,1,1.38,1.67Z" transform="translate(-602.71 -177.7)"/><path class="cls-3" d="M1272.93,530.62l-.51.43a1.09,1.09,0,1,1-1.4-1.68h0l.52-.43a1.09,1.09,0,0,1,1.39,1.68Z" transform="translate(-602.71 -177.7)"/><path class="cls-3" d="M1269.35,533.61l-.51.43a1.1,1.1,0,0,1-1.42-1.69h0l.52-.43a1.1,1.1,0,0,1,1.41,1.69Z" transform="translate(-602.71 -177.7)"/><path class="cls-3" d="M1265.79,536.62l-.51.43a1.11,1.11,0,0,1-1.45-1.68h0l.51-.44a1.11,1.11,0,0,1,1.44,1.69Z" transform="translate(-602.71 -177.7)"/><path class="cls-3" d="M1262.27,539.68l-.5.44a1.12,1.12,0,1,1-1.49-1.67h0l.51-.44a1.12,1.12,0,0,1,1.48,1.68Z" transform="translate(-602.71 -177.7)"/><path class="cls-3" d="M1258.82,542.79l-.49.45a1.13,1.13,0,1,1-1.54-1.65h0l.5-.46a1.13,1.13,0,0,1,1.53,1.66Z" transform="translate(-602.71 -177.7)"/><path class="cls-3" d="M1255.46,546l-.47.47h0a1.14,1.14,0,0,1-1.6-1.62h0l.48-.47a1.14,1.14,0,0,1,1.59,1.63Z" transform="translate(-602.71 -177.7)"/><path class="cls-3" d="M1252.22,549.29l-.45.49h0a1.15,1.15,0,1,1-1.68-1.56h0l.46-.5a1.15,1.15,0,0,1,1.68,1.57Z" transform="translate(-602.71 -177.7)"/><path class="cls-3" d="M1249.18,552.74l-.42.51h0a1.15,1.15,0,0,1-1.79-1.46l.43-.53a1.16,1.16,0,0,1,1.79,1.46h0Z" transform="translate(-602.71 -177.7)"/><path class="cls-3" d="M1246.43,556.38l-.36.54v0a1.15,1.15,0,0,1-1.91-1.26l.38-.58a1.15,1.15,0,0,1,1.92,1.26h0Z" transform="translate(-602.71 -177.7)"/><path class="cls-3" d="M1244.19,560.27l-.25.58,0,0a1.14,1.14,0,0,1-2.08-.91l.28-.65a1.14,1.14,0,0,1,2.09.91h0Z" transform="translate(-602.71 -177.7)"/><path class="cls-3" d="M1242.95,564.39l-.05.6v.07a1.13,1.13,0,0,1-2.24-.19l.06-.74a1.13,1.13,0,1,1,2.25.19h0Z" transform="translate(-602.71 -177.7)"/><path class="cls-3" d="M1243.47,568.41l.25.53,0,.08a1.12,1.12,0,0,1-2,1l-.33-.68a1.12,1.12,0,1,1,2-1h0Z" transform="translate(-602.71 -177.7)"/><path class="cls-3" d="M1246,571.64l.48.36.06,0a1.11,1.11,0,0,1-1.33,1.77l-.59-.44a1.11,1.11,0,0,1,1.33-1.78h0Z" transform="translate(-602.71 -177.7)"/><path class="cls-3" d="M1249.73,573.56l.6.17h0a1.1,1.1,0,0,1-.6,2.11l-.69-.19a1.1,1.1,0,1,1,.59-2.12h0Z" transform="translate(-602.71 -177.7)"/><path class="cls-3" d="M1254.07,574.31l.64,0h0a1.09,1.09,0,0,1-.1,2.18l-.69,0a1.09,1.09,0,1,1,.1-2.18h0Z" transform="translate(-602.71 -177.7)"/><path class="cls-3" d="M1258.58,574.24l.65-.06h0a1.08,1.08,0,0,1,.2,2.15l-.68.07a1.08,1.08,0,0,1-.21-2.15h0Z" transform="translate(-602.71 -177.7)"/><path class="cls-3" d="M1263.1,573.62l.64-.12h0a1.07,1.07,0,0,1,.41,2.1l-.67.13a1.07,1.07,0,0,1-.41-2.1h0Z" transform="translate(-602.71 -177.7)"/><path class="cls-3" d="M1267.59,572.61l.64-.17h0a1.06,1.06,0,0,1,.55,2l-.66.18a1.06,1.06,0,1,1-.56-2.05h0Z" transform="translate(-602.71 -177.7)"/><path class="cls-3" d="M1272,571.31l.63-.21h0a1.05,1.05,0,0,1,.66,2l-.64.21a1.05,1.05,0,1,1-.67-2h0Z" transform="translate(-602.71 -177.7)"/><path class="cls-3" d="M1276.38,569.77l.62-.24h0a1,1,0,0,1,.75,1.95l-.63.24a1,1,0,0,1-.75-1.95h0Z" transform="translate(-602.71 -177.7)"/><path class="cls-3" d="M1280.67,568l.61-.26h0a1,1,0,0,1,.82,1.89l-.62.27a1,1,0,1,1-.83-1.9h0Z" transform="translate(-602.71 -177.7)"/><path class="cls-3" d="M1284.89,566.13l.6-.29h0a1,1,0,0,1,.89,1.84l-.61.29a1,1,0,0,1-.89-1.85h0Z" transform="translate(-602.71 -177.7)"/><path class="cls-3" d="M1289,564.06l.59-.31h0a1,1,0,0,1,.95,1.79l-.6.32a1,1,0,0,1-1-1.79h0Z" transform="translate(-602.71 -177.7)"/><path class="cls-3" d="M1293.11,561.84l.58-.33h0a1,1,0,0,1,1,1.74l-.58.34a1,1,0,0,1-1-1.74h0Z" transform="translate(-602.71 -177.7)"/><path class="cls-3" d="M1297.08,559.46l.56-.36h0a1,1,0,0,1,1.07,1.68l-.57.36a1,1,0,1,1-1.07-1.68h0Z" transform="translate(-602.71 -177.7)"/><path class="cls-3" d="M1300.95,556.91l.54-.38h0a1,1,0,0,1,1.14,1.61l-.55.39a1,1,0,0,1-1.14-1.61h0Z" transform="translate(-602.71 -177.7)"/><path class="cls-3" d="M1304.66,554.16l.52-.41h0a1,1,0,0,1,1.22,1.52l-.53.43a1,1,0,0,1-1.23-1.52h0Z" transform="translate(-602.71 -177.7)"/><path class="cls-3" d="M1308.14,551.18l.47-.46h0a.95.95,0,0,1,1.32,1.36l-.49.48a1,1,0,0,1-1.34-1.36h0Z" transform="translate(-602.71 -177.7)"/><path class="cls-3" d="M1311.18,547.85l.37-.51,0,0a.92.92,0,0,1,1.51,1.06l-.4.58a.93.93,0,0,1-1.52-1.05h0Z" transform="translate(-602.71 -177.7)"/><path class="cls-3" d="M1312.81,544.16c0-.16,0-.31-.05-.47l0-.23a.88.88,0,0,1,1.75-.2c0,.28.08.57.11.86a.89.89,0,0,1-1.76.24Z" transform="translate(-602.71 -177.7)"/><path class="cls-3" d="M1310.84,542.25l-.43.16-.2.06a.85.85,0,0,1-.58-1.6l.81-.31a.86.86,0,0,1,.62,1.59Z" transform="translate(-602.71 -177.7)"/><path class="cls-3" d="M1307.87,544.92l-.38.52v0a.84.84,0,0,1-1.36-1l.4-.56a.84.84,0,1,1,1.37,1h0Z" transform="translate(-602.71 -177.7)"/><path class="cls-3" d="M1305.4,548.76l-.33.57h0a.81.81,0,0,1-1.4-.8l.33-.59a.81.81,0,0,1,1.42.8h0Z" transform="translate(-602.71 -177.7)"/><path class="cls-3" d="M1303.14,552.82l-.31.59a.78.78,0,0,1-1.38-.73l.31-.59a.78.78,0,1,1,1.39.72Z" transform="translate(-602.71 -177.7)"/><path class="cls-3" d="M1300.95,556.93l-.31.59a.75.75,0,0,1-1.33-.69l.3-.59a.75.75,0,1,1,1.34.69Z" transform="translate(-602.71 -177.7)"/><path class="cls-3" d="M1298.76,561.06l-.32.59a.72.72,0,0,1-1.28-.68l.31-.59a.73.73,0,0,1,1.29.67Z" transform="translate(-602.71 -177.7)"/><path class="cls-3" d="M1296.52,565.17l-.33.59a.69.69,0,0,1-1.22-.67l.32-.59a.7.7,0,1,1,1.23.66Z" transform="translate(-602.71 -177.7)"/><path class="cls-3" d="M1294.21,569.24l-.34.58a.67.67,0,0,1-1.15-.67l.33-.58a.67.67,0,0,1,1.17.66Z" transform="translate(-602.71 -177.7)"/><path class="cls-3" d="M1291.81,573.26l-.35.57a.64.64,0,0,1-1.09-.67l.34-.57a.64.64,0,1,1,1.1.66Z" transform="translate(-602.71 -177.7)"/><path class="cls-3" d="M1289.29,577.22l-.37.56a.61.61,0,0,1-1-.67l.36-.56a.61.61,0,1,1,1,.66Z" transform="translate(-602.71 -177.7)"/><path class="cls-3" d="M1286.63,581.09l-.39.55a.58.58,0,0,1-.94-.67l.38-.54a.58.58,0,1,1,1,.67Z" transform="translate(-602.71 -177.7)"/><path class="cls-3" d="M1283.81,584.84l-.42.53a.54.54,0,0,1-.84-.66l.4-.53a.54.54,0,1,1,.87.65Z" transform="translate(-602.71 -177.7)"/><path class="cls-3" d="M1280.82,588.45l-.44.51a.49.49,0,0,1-.74-.64l.43-.51a.5.5,0,0,1,.76.63Z" transform="translate(-602.71 -177.7)"/><path class="cls-3" d="M1277.64,591.9l-.47.48a.44.44,0,0,1-.63-.62l.46-.48a.45.45,0,1,1,.66.61Z" transform="translate(-602.71 -177.7)"/><path class="cls-3" d="M1274.25,595.16l-.5.45a.4.4,0,0,1-.53-.59l.49-.45a.4.4,0,1,1,.55.58Z" transform="translate(-602.71 -177.7)"/><path class="cls-3" d="M1270.66,598.18l-.53.41a.35.35,0,0,1-.49-.06.35.35,0,0,1,.06-.49l.52-.42a.36.36,0,0,1,.45.55Z" transform="translate(-602.71 -177.7)"/><path class="cls-3" d="M1266.84,600.91l-.56.37a.3.3,0,0,1-.42-.09.31.31,0,0,1,.09-.42l.55-.37a.31.31,0,0,1,.35.51Z" transform="translate(-602.71 -177.7)"/><path class="cls-3" d="M1262.8,603.32l-.59.31a.26.26,0,0,1-.35-.11.26.26,0,0,1,.11-.35l.58-.32a.26.26,0,0,1,.26.46Z" transform="translate(-602.71 -177.7)"/><path class="cls-3" d="M1258.57,605.34l-.62.26a.21.21,0,0,1-.27-.11.21.21,0,0,1,.11-.27l.61-.27a.22.22,0,1,1,.18.39Z" transform="translate(-602.71 -177.7)"/><path class="cls-3" d="M1254.16,606.94l-.64.19a.16.16,0,0,1-.2-.11.16.16,0,0,1,.1-.2l.63-.21a.17.17,0,1,1,.11.32Z" transform="translate(-602.71 -177.7)"/><path class="cls-3" d="M1249.62,608.09l-.66.13a.1.1,0,0,1-.11-.08.1.1,0,0,1,.07-.11l.65-.14a.1.1,0,1,1,0,.2Z" transform="translate(-602.71 -177.7)"/><path class="cls-3" d="M1245,608.77l-.67.06a0,0,0,0,1,0,0,0,0,0,0,1,0,0l.66-.08a0,0,0,1,1,0,.08Z" transform="translate(-602.71 -177.7)"/></g><g id="_Grupo_31" data-name="&lt;Grupo&gt;"><polygon class="cls-3" points="39.58 14.92 39.54 15.49 39.53 15.5 39.53 15.49 39.53 15.49 39.58 14.92"/><path class="cls-3" d="M643.08,196.51l.28.5a0,0,0,1,1-.06,0h0l-.28-.51a0,0,0,0,1,0,0A0,0,0,0,1,643.08,196.51Z" transform="translate(-602.71 -177.7)"/><path class="cls-3" d="M645.58,199.64l.43.38a.07.07,0,1,1-.09.11h0l-.42-.39a.07.07,0,0,1,0-.09A.07.07,0,0,1,645.58,199.64Z" transform="translate(-602.71 -177.7)"/><path class="cls-3" d="M648.78,202.08l.49.31a.11.11,0,0,1-.11.18h0l-.49-.32a.1.1,0,0,1,0-.14A.1.1,0,0,1,648.78,202.08Z" transform="translate(-602.71 -177.7)"/><path class="cls-3" d="M652.28,204.07l.52.26a.14.14,0,0,1-.12.25h0l-.51-.27a.13.13,0,0,1-.06-.18A.14.14,0,0,1,652.28,204.07Z" transform="translate(-602.71 -177.7)"/><path class="cls-3" d="M655.94,205.76l.53.22a.17.17,0,0,1-.13.32h0l-.53-.23a.17.17,0,0,1,.13-.31Z" transform="translate(-602.71 -177.7)"/><path class="cls-3" d="M659.7,207.21l.54.19a.21.21,0,0,1-.13.39h0l-.54-.2a.2.2,0,0,1,.14-.38Z" transform="translate(-602.71 -177.7)"/><path class="cls-3" d="M663.53,208.48l.55.17a.24.24,0,0,1-.14.46h0l-.55-.18a.23.23,0,0,1,.14-.45Z" transform="translate(-602.71 -177.7)"/><path class="cls-3" d="M667.4,209.59l.56.15a.27.27,0,1,1-.14.53h0l-.56-.16a.27.27,0,0,1,.14-.52Z" transform="translate(-602.71 -177.7)"/><path class="cls-3" d="M671.32,210.55l.56.13a.31.31,0,0,1-.13.6h0l-.56-.14a.3.3,0,0,1,.14-.59Z" transform="translate(-602.71 -177.7)"/><path class="cls-3" d="M675.26,211.39l.57.11a.34.34,0,0,1-.12.67h0l-.57-.12a.34.34,0,0,1,.13-.66Z" transform="translate(-602.71 -177.7)"/><path class="cls-3" d="M679.23,212.08l.57.09a.37.37,0,0,1-.11.74h0l-.57-.1a.37.37,0,0,1,.12-.73Z" transform="translate(-602.71 -177.7)"/><path class="cls-3" d="M683.22,212.63l.58.06a.41.41,0,0,1-.08.81h0l-.58-.07a.4.4,0,0,1,.1-.8Z" transform="translate(-602.71 -177.7)"/><path class="cls-3" d="M687.23,213l.57,0a.44.44,0,0,1,0,.88h0l-.58,0a.44.44,0,0,1,.06-.87Z" transform="translate(-602.71 -177.7)"/><path class="cls-3" d="M691.22,213l.57,0h0a.47.47,0,1,1,.05.95h0l-.59,0a.47.47,0,0,1,0-.94Z" transform="translate(-602.71 -177.7)"/><path class="cls-3" d="M694.93,212.31a1,1,0,0,0,.29-.25.5.5,0,1,1,.82.59h0a2,2,0,0,1-.59.5.5.5,0,1,1-.51-.86Z" transform="translate(-602.71 -177.7)"/><path class="cls-3" d="M693.54,210.57l-.52-.16h0a.52.52,0,0,1,.3-1h0l.58.18a.52.52,0,0,1-.3,1Z" transform="translate(-602.71 -177.7)"/><path class="cls-3" d="M689.7,209.86l-.57,0h0a.54.54,0,0,1,.09-1.08h0l.58.06a.54.54,0,0,1-.1,1.07Z" transform="translate(-602.71 -177.7)"/><path class="cls-3" d="M685.71,209.67h-.58a.56.56,0,0,1,0-1.12h.59a.56.56,0,0,1,0,1.12Z" transform="translate(-602.71 -177.7)"/><path class="cls-3" d="M681.71,209.76l-.57,0a.58.58,0,1,1-.07-1.16h0l.58,0a.58.58,0,0,1,.05,1.15Z" transform="translate(-602.71 -177.7)"/><path class="cls-3" d="M677.71,210.06l-.57.06a.6.6,0,0,1-.12-1.19h0l.58-.05a.6.6,0,0,1,.11,1.19Z" transform="translate(-602.71 -177.7)"/><path class="cls-3" d="M673.72,210.52l-.57.08a.62.62,0,0,1-.18-1.22h0l.58-.07a.62.62,0,0,1,.16,1.22Z" transform="translate(-602.71 -177.7)"/><path class="cls-3" d="M669.76,211.14l-.57.1A.64.64,0,1,1,669,210h0l.57-.1a.63.63,0,0,1,.21,1.25Z" transform="translate(-602.71 -177.7)"/><path class="cls-3" d="M665.82,211.92l-.56.12a.66.66,0,1,1-.29-1.28h0l.57-.12a.65.65,0,0,1,.27,1.28Z" transform="translate(-602.71 -177.7)"/><path class="cls-3" d="M661.92,212.86l-.55.15a.67.67,0,1,1-.36-1.3h0l.57-.15a.67.67,0,0,1,.34,1.3Z" transform="translate(-602.71 -177.7)"/><path class="cls-3" d="M658.08,214l-.55.18h0a.69.69,0,0,1-.43-1.32h0l.56-.18a.69.69,0,0,1,.42,1.32Z" transform="translate(-602.71 -177.7)"/><path class="cls-3" d="M654.31,215.31l-.53.21h0a.71.71,0,1,1-.52-1.32h0l.55-.21a.71.71,0,0,1,.52,1.32Z" transform="translate(-602.71 -177.7)"/><path class="cls-3" d="M650.65,216.9l-.51.25h0a.73.73,0,0,1-.64-1.31h0l.53-.25a.73.73,0,0,1,.64,1.31Z" transform="translate(-602.71 -177.7)"/><path class="cls-3" d="M647.17,218.79l-.48.3h0a.75.75,0,1,1-.8-1.27h0l.5-.31a.75.75,0,0,1,.79,1.27Z" transform="translate(-602.71 -177.7)"/><path class="cls-3" d="M644,221.09l-.42.37h0a.77.77,0,0,1-1-1.16h0l.46-.39a.77.77,0,0,1,1,1.16Z" transform="translate(-602.71 -177.7)"/><path class="cls-3" d="M641.33,223.88l-.32.45,0,0a.79.79,0,0,1-1.29-.91h0l.36-.5a.78.78,0,0,1,1.28.91Z" transform="translate(-602.71 -177.7)"/><path class="cls-3" d="M639.6,227.22l-.14.51v0a.81.81,0,0,1-1.55-.43h0l.17-.59a.8.8,0,0,1,1.55.43Z" transform="translate(-602.71 -177.7)"/><path class="cls-3" d="M639.34,230.76l.15.45,0,.1a.82.82,0,0,1-1.57.51h0l-.21-.65a.82.82,0,0,1,1.56-.5Z" transform="translate(-602.71 -177.7)"/><path class="cls-3" d="M641.45,233.21l.47.22.05,0a.84.84,0,0,1-.72,1.53h0l-.57-.28a.84.84,0,0,1,.72-1.52Z" transform="translate(-602.71 -177.7)"/><path class="cls-3" d="M645,234.27l.55.08h0a.85.85,0,1,1-.25,1.68h0l-.59-.09a.85.85,0,1,1,.25-1.68Z" transform="translate(-602.71 -177.7)"/><path class="cls-3" d="M649,234.62l.57,0h0a.86.86,0,1,1-.06,1.71h0l-.59,0a.86.86,0,1,1,.06-1.71Z" transform="translate(-602.71 -177.7)"/><path class="cls-3" d="M653,234.65h.57a.86.86,0,1,1,0,1.72H653a.86.86,0,1,1,0-1.72Z" transform="translate(-602.71 -177.7)"/><path class="cls-3" d="M657,234.52l.57,0a.87.87,0,0,1,.08,1.74h0l-.58,0a.87.87,0,0,1-.07-1.73Z" transform="translate(-602.71 -177.7)"/><path class="cls-3" d="M661,234.32l.58,0a.88.88,0,1,1,.09,1.75h0l-.58,0a.87.87,0,0,1-.09-1.75Z" transform="translate(-602.71 -177.7)"/><path class="cls-3" d="M665,234.11l.58,0a.88.88,0,1,1,.09,1.76h0l-.57,0a.88.88,0,0,1-.09-1.76Z" transform="translate(-602.71 -177.7)"/><path class="cls-3" d="M669.06,233.92l.58,0a.89.89,0,1,1,.07,1.77h0l-.58,0a.89.89,0,0,1-.07-1.77Z" transform="translate(-602.71 -177.7)"/><path class="cls-3" d="M673.12,233.79h.58a.89.89,0,1,1,0,1.79h-.58a.89.89,0,1,1,0-1.79Z" transform="translate(-602.71 -177.7)"/><path class="cls-3" d="M677.18,233.76h.58a.9.9,0,1,1,0,1.8h-.58a.9.9,0,1,1,0-1.8Z" transform="translate(-602.71 -177.7)"/><path class="cls-3" d="M681.25,233.85l.58,0a.91.91,0,0,1-.08,1.81h0l-.57,0h0a.91.91,0,0,1,.08-1.81Z" transform="translate(-602.71 -177.7)"/><path class="cls-3" d="M685.33,234.1l.58.05a.91.91,0,0,1-.16,1.82h0l-.57-.05h0a.91.91,0,0,1,.17-1.82Z" transform="translate(-602.71 -177.7)"/><path class="cls-3" d="M689.4,234.56l.58.09a.92.92,0,1,1-.27,1.82h0l-.56-.09h0a.92.92,0,0,1,.27-1.82Z" transform="translate(-602.71 -177.7)"/><path class="cls-3" d="M693.44,235.29l.58.13a.93.93,0,1,1-.41,1.8h0l-.55-.13h0a.92.92,0,0,1,.41-1.8Z" transform="translate(-602.71 -177.7)"/><path class="cls-3" d="M697.43,236.35l.56.18a.93.93,0,1,1-.58,1.77h0l-.54-.18h0a.93.93,0,0,1,.58-1.77Z" transform="translate(-602.71 -177.7)"/><path class="cls-3" d="M701.3,237.82l.55.25a.94.94,0,1,1-.78,1.71h0l-.51-.24h0a.94.94,0,0,1,.78-1.7Z" transform="translate(-602.71 -177.7)"/><path class="cls-3" d="M705,239.79l.51.34a.94.94,0,1,1-1.06,1.56h0l0,0-.45-.31,0,0a.94.94,0,0,1,1.06-1.56Z" transform="translate(-602.71 -177.7)"/><path class="cls-3" d="M708.27,242.51l.41.45a.95.95,0,0,1-1.4,1.29h0l0,0-.37-.4,0,0a.95.95,0,0,1,1.4-1.28Z" transform="translate(-602.71 -177.7)"/><path class="cls-3" d="M710.84,245.88l.31.52a1,1,0,0,1-1.65,1h0v0l-.28-.48v0a1,1,0,0,1,1.65-1Z" transform="translate(-602.71 -177.7)"/><path class="cls-3" d="M712.67,249.66l.21.56a1,1,0,1,1-1.81.67h0v0l-.19-.52v0a1,1,0,0,1,1.81-.66Z" transform="translate(-602.71 -177.7)"/><path class="cls-3" d="M713.87,253.66l.13.58a1,1,0,0,1-1.89.41h0v0l-.12-.55v0a1,1,0,0,1,1.89-.4Z" transform="translate(-602.71 -177.7)"/><path class="cls-3" d="M714.54,257.75l.06.59a1,1,0,0,1-1.94.19h0l-.05-.56h0a1,1,0,0,1,1.94-.19Z" transform="translate(-602.71 -177.7)"/><path class="cls-3" d="M714.78,261.88v.59a1,1,0,0,1-2,0h0v-.57h0a1,1,0,0,1,2,0Z" transform="translate(-602.71 -177.7)"/><path class="cls-3" d="M714.66,266l0,.59a1,1,0,1,1-2-.14h0l0-.57h0a1,1,0,0,1,2,.14Z" transform="translate(-602.71 -177.7)"/><path class="cls-3" d="M714.25,270.08l-.08.58a1,1,0,1,1-2-.27h0l.08-.56h0a1,1,0,0,1,2,.27Z" transform="translate(-602.71 -177.7)"/><path class="cls-3" d="M713.59,274.12l-.11.58a1,1,0,0,1-2-.39h0l.11-.56h0a1,1,0,0,1,2,.39Z" transform="translate(-602.71 -177.7)"/><path class="cls-3" d="M712.68,278.12l-.15.57a1,1,0,1,1-1.92-.5h0l.14-.55h0a1,1,0,1,1,1.93.5Z" transform="translate(-602.71 -177.7)"/><path class="cls-3" d="M711.55,282.06l-.18.56a1,1,0,1,1-1.88-.6h0l.17-.55h0a1,1,0,1,1,1.89.59Z" transform="translate(-602.71 -177.7)"/><path class="cls-3" d="M710.22,285.93l-.21.55a1,1,0,0,1-1.84-.69h0l.2-.54h0a1,1,0,1,1,1.84.69Z" transform="translate(-602.71 -177.7)"/><path class="cls-3" d="M708.68,289.72l-.24.54a1,1,0,1,1-1.78-.79h0l.23-.52h0a1,1,0,1,1,1.79.79Z" transform="translate(-602.71 -177.7)"/><path class="cls-3" d="M706.93,293.43l-.27.52a1,1,0,1,1-1.72-.89h0l.26-.51h0a1,1,0,0,1,1.72.89Z" transform="translate(-602.71 -177.7)"/><path class="cls-3" d="M704.93,297l-.31.5a1,1,0,1,1-1.64-1h0l.29-.49h0a1,1,0,0,1,1.65,1Z" transform="translate(-602.71 -177.7)"/><path class="cls-3" d="M702.66,300.46l-.35.48a1,1,0,0,1-1.54-1.14h0l.33-.46h0a1,1,0,1,1,1.54,1.13Z" transform="translate(-602.71 -177.7)"/><path class="cls-3" d="M700,303.68l-.41.44a.95.95,0,0,1-1.38-1.3h0l.38-.41h0a1,1,0,1,1,1.39,1.3Z" transform="translate(-602.71 -177.7)"/><path class="cls-3" d="M696.92,306.52l-.5.36a.94.94,0,0,1-1.1-1.53l0,0,.44-.32,0,0a.94.94,0,1,1,1.1,1.53Z" transform="translate(-602.71 -177.7)"/><path class="cls-3" d="M693.07,308.55l-.62.17a.94.94,0,1,1-.48-1.81l.06,0,.5-.13.06,0a.94.94,0,0,1,.49,1.81Z" transform="translate(-602.71 -177.7)"/><path class="cls-3" d="M688.55,308.61l-.64-.24a.93.93,0,0,1,.66-1.74l.1,0,.44.16.1,0a.93.93,0,1,1-.65,1.74Z" transform="translate(-602.71 -177.7)"/><path class="cls-3" d="M685.34,305.06l-.08-.68a.92.92,0,1,1,1.83-.22v.1l.06.47v.11a.92.92,0,0,1-1.83.22Z" transform="translate(-602.71 -177.7)"/><path class="cls-3" d="M685.84,300.65l.2-.57a.92.92,0,0,1,1.74.59v0l-.17.51v0a.92.92,0,1,1-1.74-.59Z" transform="translate(-602.71 -177.7)"/><path class="cls-3" d="M687.5,296.81l.28-.52a.91.91,0,1,1,1.61.86h0l-.26.5h0a.91.91,0,0,1-1.61-.86Z" transform="translate(-602.71 -177.7)"/><path class="cls-3" d="M689.61,293.26l.32-.49a.91.91,0,1,1,1.51,1h0l-.31.47h0a.91.91,0,0,1-1.51-1Z" transform="translate(-602.71 -177.7)"/><path class="cls-3" d="M692,289.91l.35-.47a.9.9,0,1,1,1.43,1.09h0l-.34.46h0a.9.9,0,1,1-1.44-1.09Z" transform="translate(-602.71 -177.7)"/><path class="cls-3" d="M694.52,286.72l.38-.45a.89.89,0,0,1,1.37,1.15h0l-.37.44h0a.89.89,0,1,1-1.37-1.15Z" transform="translate(-602.71 -177.7)"/><path class="cls-3" d="M697.21,283.65l.4-.43a.89.89,0,0,1,1.31,1.2h0l-.39.42h0a.89.89,0,0,1-1.31-1.2Z" transform="translate(-602.71 -177.7)"/><path class="cls-3" d="M700,280.69l.41-.41a.88.88,0,1,1,1.25,1.24l-.4.41A.88.88,0,0,1,700,280.7Z" transform="translate(-602.71 -177.7)"/><path class="cls-3" d="M702.93,277.85l.43-.4a.87.87,0,1,1,1.19,1.28l-.42.39a.88.88,0,1,1-1.2-1.27Z" transform="translate(-602.71 -177.7)"/><path class="cls-3" d="M706,275.12l.44-.38a.87.87,0,1,1,1.13,1.32l-.43.38a.87.87,0,1,1-1.15-1.31Z" transform="translate(-602.71 -177.7)"/><path class="cls-3" d="M709.09,272.51l.46-.36a.86.86,0,1,1,1.07,1.35h0l-.45.36h0a.86.86,0,0,1-1.08-1.35Z" transform="translate(-602.71 -177.7)"/><path class="cls-3" d="M712.33,270l.47-.34a.86.86,0,1,1,1,1.39h0l-.46.34h0a.86.86,0,1,1-1-1.39Z" transform="translate(-602.71 -177.7)"/><path class="cls-3" d="M715.7,267.73l.49-.32a.85.85,0,0,1,.92,1.43h0l-.48.31h0a.85.85,0,0,1-.92-1.43Z" transform="translate(-602.71 -177.7)"/><path class="cls-3" d="M719.21,265.61l.52-.28a.84.84,0,0,1,.82,1.47h0l-.5.28h0a.84.84,0,0,1-.82-1.47Z" transform="translate(-602.71 -177.7)"/><path class="cls-3" d="M722.88,263.76l.54-.24a.82.82,0,0,1,.67,1.5h0l-.52.23h0a.83.83,0,0,1-.68-1.5Z" transform="translate(-602.71 -177.7)"/><path class="cls-3" d="M726.75,262.29l.57-.17a.8.8,0,0,1,.47,1.54h0l-.54.17h0a.81.81,0,0,1-.48-1.54Z" transform="translate(-602.71 -177.7)"/><path class="cls-3" d="M730.84,261.4l.6-.06a.78.78,0,0,1,.16,1.56h0L731,263h0a.79.79,0,1,1-.17-1.57Z" transform="translate(-602.71 -177.7)"/><path class="cls-3" d="M735.1,261.51l.61.14a.76.76,0,0,1-.33,1.49h0l-.52-.11h0a.77.77,0,1,1,.32-1.5Z" transform="translate(-602.71 -177.7)"/><path class="cls-3" d="M739.08,263.22l.48.36a.75.75,0,0,1-.88,1.21l0,0-.45-.32h0a.75.75,0,0,1,.88-1.22Z" transform="translate(-602.71 -177.7)"/><path class="cls-3" d="M742.19,266l.39.46a.73.73,0,0,1-1.11.94l0,0-.36-.42,0,0a.73.73,0,1,1,1.11-.95Z" transform="translate(-602.71 -177.7)"/><path class="cls-3" d="M744.54,269.51l.27.53a.71.71,0,0,1-1.26.65v0l-.26-.49v0a.71.71,0,1,1,1.26-.65Z" transform="translate(-602.71 -177.7)"/><path class="cls-3" d="M746.1,273.38l.16.57a.69.69,0,0,1-1.32.39v0l-.16-.54v0a.69.69,0,0,1,1.33-.39Z" transform="translate(-602.71 -177.7)"/><path class="cls-3" d="M747,277.42l.08.58a.67.67,0,0,1-1.33.18h0l-.08-.56h0a.67.67,0,0,1,1.33-.19Z" transform="translate(-602.71 -177.7)"/><path class="cls-3" d="M747.31,281.51v.58a.65.65,0,0,1-1.3,0h0l0-.56h0a.65.65,0,0,1,1.31,0Z" transform="translate(-602.71 -177.7)"/><path class="cls-3" d="M747.23,285.6l0,.58a.63.63,0,0,1-1.26-.08h0l0-.57h0a.64.64,0,1,1,1.27.07Z" transform="translate(-602.71 -177.7)"/><path class="cls-3" d="M746.83,289.66l-.08.58a.61.61,0,0,1-1.22-.16h0l.07-.57h0a.62.62,0,0,1,1.22.16Z" transform="translate(-602.71 -177.7)"/><path class="cls-3" d="M746.18,293.68l-.11.57a.59.59,0,0,1-1.17-.23l.1-.56a.6.6,0,1,1,1.18.21Z" transform="translate(-602.71 -177.7)"/><path class="cls-3" d="M745.32,297.65l-.14.56a.58.58,0,0,1-1.12-.27l.13-.56a.58.58,0,0,1,1.13.26Z" transform="translate(-602.71 -177.7)"/><path class="cls-3" d="M744.28,301.58l-.16.56a.56.56,0,0,1-1.07-.3l.15-.55a.56.56,0,0,1,1.08.29Z" transform="translate(-602.71 -177.7)"/><path class="cls-3" d="M743.11,305.46l-.18.55a.54.54,0,0,1-1-.33l.17-.55a.54.54,0,0,1,1,.32Z" transform="translate(-602.71 -177.7)"/><path class="cls-3" d="M741.81,309.3l-.2.55a.52.52,0,0,1-1-.35l.19-.54a.52.52,0,1,1,1,.34Z" transform="translate(-602.71 -177.7)"/><path class="cls-3" d="M740.41,313.1l-.21.54a.5.5,0,0,1-.93-.36l.2-.54a.5.5,0,1,1,.94.35Z" transform="translate(-602.71 -177.7)"/><path class="cls-3" d="M738.89,316.85l-.22.53a.47.47,0,0,1-.86-.35l.21-.53a.47.47,0,1,1,.87.35Z" transform="translate(-602.71 -177.7)"/><path class="cls-3" d="M737.29,320.57l-.23.53a.43.43,0,0,1-.79-.35l.22-.53a.44.44,0,1,1,.8.34Z" transform="translate(-602.71 -177.7)"/><path class="cls-3" d="M735.62,324.25l-.25.52a.4.4,0,0,1-.72-.33l.24-.53a.4.4,0,1,1,.74.33Z" transform="translate(-602.71 -177.7)"/><path class="cls-3" d="M733.87,327.9l-.26.52a.36.36,0,0,1-.66-.32l.25-.52a.37.37,0,0,1,.67.31Z" transform="translate(-602.71 -177.7)"/><path class="cls-3" d="M732.07,331.52l-.26.52a.33.33,0,0,1-.59-.3l.25-.52a.34.34,0,0,1,.6.29Z" transform="translate(-602.71 -177.7)"/><path class="cls-3" d="M730.2,335.1l-.27.51a.3.3,0,0,1-.53-.28l.26-.51a.3.3,0,0,1,.54.27Z" transform="translate(-602.71 -177.7)"/><path class="cls-3" d="M728.27,338.66l-.28.51a.26.26,0,0,1-.46-.25l.27-.51a.27.27,0,0,1,.47.25Z" transform="translate(-602.71 -177.7)"/><path class="cls-3" d="M726.29,342.18l-.29.5a.23.23,0,0,1-.4-.22l.28-.51a.23.23,0,1,1,.41.22Z" transform="translate(-602.71 -177.7)"/><path class="cls-3" d="M724.26,345.68l-.29.5a.2.2,0,0,1-.34-.2l.28-.5a.2.2,0,0,1,.35.2Z" transform="translate(-602.71 -177.7)"/><path class="cls-3" d="M722.19,349.15l-.3.49a.16.16,0,0,1-.28-.17l.29-.5a.17.17,0,0,1,.29.17Z" transform="translate(-602.71 -177.7)"/><path class="cls-3" d="M720.07,352.59l-.31.49a.13.13,0,0,1-.22-.13l.3-.5a.13.13,0,1,1,.23.14Z" transform="translate(-602.71 -177.7)"/><path class="cls-3" d="M717.9,356l-.31.49a.09.09,0,0,1-.16-.1l.31-.49a.1.1,0,0,1,.17.1Z" transform="translate(-602.71 -177.7)"/><path class="cls-3" d="M715.69,359.39l-.32.48a.06.06,0,0,1-.1-.07l.31-.49a.06.06,0,0,1,.11.07Z" transform="translate(-602.71 -177.7)"/><path class="cls-3" d="M713.44,362.75l-.33.48a0,0,0,0,1,0,0,0,0,0,0,1,0,0l.32-.48a0,0,0,0,1,.05,0Z" transform="translate(-602.71 -177.7)"/></g><g id="_Grupo_32" data-name="&lt;Grupo&gt;"><polygon class="cls-3" points="322.01 12.96 321.79 13.49 321.79 13.49 321.79 13.48 321.79 13.48 322.01 12.96"/><path class="cls-3" d="M923.36,194.45l-.17.55h0a0,0,0,0,1,0,0h0l.17-.55h0A0,0,0,0,1,923.36,194.45Z" transform="translate(-602.71 -177.7)"/><path class="cls-3" d="M922.32,198.35l-.12.56a0,0,0,1,1-.08,0h0l.13-.56a0,0,0,0,1,.07,0Z" transform="translate(-602.71 -177.7)"/><path class="cls-3" d="M921.56,202.31l-.09.57a.06.06,0,1,1-.12,0h0l.09-.57a.06.06,0,0,1,.11,0Z" transform="translate(-602.71 -177.7)"/><path class="cls-3" d="M921,206.31l-.06.57a.08.08,0,1,1-.15,0h0l.06-.58a.07.07,0,0,1,.15,0Z" transform="translate(-602.71 -177.7)"/><path class="cls-3" d="M920.73,210.33l0,.57a.1.1,0,1,1-.19,0h0l0-.58a.09.09,0,0,1,.19,0Z" transform="translate(-602.71 -177.7)"/><path class="cls-3" d="M920.62,214.36v.58a.11.11,0,1,1-.23,0h0v-.58a.11.11,0,0,1,.22,0Z" transform="translate(-602.71 -177.7)"/><path class="cls-3" d="M920.72,218.39l0,.58a.13.13,0,1,1-.27,0h0l0-.58a.13.13,0,0,1,.26,0Z" transform="translate(-602.71 -177.7)"/><path class="cls-3" d="M921,222.41l.06.57a.15.15,0,0,1-.3,0h0l-.06-.58a.15.15,0,0,1,.3,0Z" transform="translate(-602.71 -177.7)"/><path class="cls-3" d="M921.53,226.4l.09.57a.17.17,0,1,1-.34.06h0l-.09-.57a.17.17,0,0,1,.33-.05Z" transform="translate(-602.71 -177.7)"/><path class="cls-3" d="M922.27,230.36l.12.56a.19.19,0,0,1-.37.09h0l-.12-.57a.19.19,0,0,1,.36-.08Z" transform="translate(-602.71 -177.7)"/><path class="cls-3" d="M923.25,234.27l.16.55a.21.21,0,1,1-.4.12h0l-.16-.56a.2.2,0,1,1,.39-.11Z" transform="translate(-602.71 -177.7)"/><path class="cls-3" d="M924.49,238.1l.2.54a.23.23,0,1,1-.42.16h0l-.2-.54a.22.22,0,1,1,.42-.15Z" transform="translate(-602.71 -177.7)"/><path class="cls-3" d="M926,241.82l.24.52a.24.24,0,0,1-.44.21h0l-.24-.53a.24.24,0,0,1,.12-.32A.24.24,0,0,1,926,241.82Z" transform="translate(-602.71 -177.7)"/><path class="cls-3" d="M927.83,245.39l.29.5a.26.26,0,1,1-.45.27h0l-.29-.51a.26.26,0,0,1,.1-.36A.26.26,0,0,1,927.83,245.39Z" transform="translate(-602.71 -177.7)"/><path class="cls-3" d="M930,248.78l.33.47a.28.28,0,0,1-.45.34h0l-.34-.48a.28.28,0,0,1,.07-.39A.28.28,0,0,1,930,248.78Z" transform="translate(-602.71 -177.7)"/><path class="cls-3" d="M932.46,251.91l.38.42h0a.3.3,0,1,1-.45.4h0l-.39-.44a.3.3,0,0,1,0-.42A.3.3,0,0,1,932.46,251.91Z" transform="translate(-602.71 -177.7)"/><path class="cls-3" d="M935.3,254.74l.43.37h0a.32.32,0,0,1-.42.48h0l-.44-.39a.32.32,0,0,1,.42-.48Z" transform="translate(-602.71 -177.7)"/><path class="cls-3" d="M938.45,257.18l.48.31h0a.34.34,0,1,1-.37.56h0l-.48-.33a.34.34,0,0,1,.37-.56Z" transform="translate(-602.71 -177.7)"/><path class="cls-3" d="M941.9,259.2l.51.25h0a.36.36,0,1,1-.31.64h0l-.52-.26a.35.35,0,0,1,.31-.63Z" transform="translate(-602.71 -177.7)"/><path class="cls-3" d="M945.57,260.75l.54.18h0a.38.38,0,0,1-.24.71h0l-.55-.19a.37.37,0,0,1,.24-.7Z" transform="translate(-602.71 -177.7)"/><path class="cls-3" d="M949.41,261.84l.56.12h0a.39.39,0,0,1-.16.77h0l-.57-.13a.39.39,0,0,1,.17-.76Z" transform="translate(-602.71 -177.7)"/><path class="cls-3" d="M953.35,262.48l.57.06h0a.41.41,0,1,1-.08.82h0l-.58-.06a.41.41,0,0,1,.09-.81Z" transform="translate(-602.71 -177.7)"/><path class="cls-3" d="M957.34,262.72h.57a.43.43,0,0,1,0,.86h-.58a.43.43,0,0,1,0-.86Z" transform="translate(-602.71 -177.7)"/><path class="cls-3" d="M961.34,262.6l.57,0a.45.45,0,1,1,.08.9h0l-.58,0a.45.45,0,0,1-.48-.42A.45.45,0,0,1,961.34,262.6Z" transform="translate(-602.71 -177.7)"/><path class="cls-3" d="M965.31,262.16l.57-.09a.47.47,0,0,1,.15.92h0l-.58.08a.47.47,0,1,1-.13-.92Z" transform="translate(-602.71 -177.7)"/><path class="cls-3" d="M969.26,261.46l.56-.12a.49.49,0,0,1,.21,1h0l-.57.12a.48.48,0,0,1-.19-.95Z" transform="translate(-602.71 -177.7)"/><path class="cls-3" d="M973.17,260.54l.56-.15a.5.5,0,0,1,.26,1h0l-.56.14a.5.5,0,1,1-.25-1Z" transform="translate(-602.71 -177.7)"/><path class="cls-3" d="M977,259.46l.55-.17a.51.51,0,1,1,.3,1h0l-.56.16a.51.51,0,0,1-.29-1Z" transform="translate(-602.71 -177.7)"/><path class="cls-3" d="M980.88,258.26l.55-.18a.52.52,0,0,1,.33,1h0l-.55.18a.52.52,0,0,1-.32-1Z" transform="translate(-602.71 -177.7)"/><path class="cls-3" d="M984.69,257l.54-.2a.53.53,0,0,1,.36,1h0L985,258a.53.53,0,0,1-.36-1Z" transform="translate(-602.71 -177.7)"/><path class="cls-3" d="M988.47,255.55l.54-.21a.54.54,0,0,1,.39,1h0l-.54.2a.54.54,0,0,1-.38-1Z" transform="translate(-602.71 -177.7)"/><path class="cls-3" d="M992.22,254.08l.54-.22a.56.56,0,0,1,.42,1h0l-.54.21a.55.55,0,0,1-.41-1Z" transform="translate(-602.71 -177.7)"/><path class="cls-3" d="M996,252.54l.53-.23a.57.57,0,0,1,.44,1h0l-.54.22a.56.56,0,0,1-.44-1Z" transform="translate(-602.71 -177.7)"/><path class="cls-3" d="M999.66,250.94l.53-.23a.58.58,0,1,1,.47,1.05h0l-.53.23a.57.57,0,0,1-.46-1.05Z" transform="translate(-602.71 -177.7)"/><path class="cls-3" d="M1003.34,249.29l.53-.24a.59.59,0,1,1,.49,1.07h0l-.53.24a.59.59,0,0,1-.48-1.07Z" transform="translate(-602.71 -177.7)"/><path class="cls-3" d="M1007,247.6l.52-.25a.6.6,0,0,1,.51,1.08h0l-.53.24a.6.6,0,0,1-.5-1.08Z" transform="translate(-602.71 -177.7)"/><path class="cls-3" d="M1010.65,245.86l.52-.25a.61.61,0,1,1,.53,1.09h0l-.52.25a.61.61,0,0,1-.53-1.09Z" transform="translate(-602.71 -177.7)"/><path class="cls-3" d="M1014.27,244.08l.52-.26a.62.62,0,0,1,.55,1.11h0l-.52.26a.62.62,0,0,1-.55-1.11Z" transform="translate(-602.71 -177.7)"/><path class="cls-3" d="M1017.88,242.27l.52-.26a.63.63,0,0,1,.57,1.12h0l-.52.26a.63.63,0,0,1-.57-1.12Z" transform="translate(-602.71 -177.7)"/><path class="cls-3" d="M1021.47,240.42l.51-.27a.64.64,0,1,1,.59,1.13h0l-.52.26a.64.64,0,0,1-.59-1.13Z" transform="translate(-602.71 -177.7)"/><path class="cls-3" d="M1025,238.55l.51-.27a.65.65,0,0,1,.61,1.15h0l-.51.27a.65.65,0,0,1-.6-1.15Z" transform="translate(-602.71 -177.7)"/><path class="cls-3" d="M1028.59,236.65l.51-.28a.66.66,0,0,1,.63,1.16h0l-.51.27a.66.66,0,0,1-.62-1.16Z" transform="translate(-602.71 -177.7)"/><path class="cls-3" d="M1032.13,234.71l.51-.28a.67.67,0,1,1,.65,1.17h0l-.51.28a.67.67,0,0,1-.64-1.17Z" transform="translate(-602.71 -177.7)"/><path class="cls-3" d="M1035.66,232.75l.5-.28a.68.68,0,0,1,.67,1.19h0l-.51.28a.68.68,0,0,1-.66-1.19Z" transform="translate(-602.71 -177.7)"/><path class="cls-3" d="M1039.17,230.77l.5-.29a.69.69,0,1,1,.69,1.2h0l-.51.28a.69.69,0,0,1-.68-1.2Z" transform="translate(-602.71 -177.7)"/><path class="cls-3" d="M1042.68,228.76l.5-.29a.7.7,0,0,1,.71,1.21h0l-.5.29a.7.7,0,0,1-.7-1.21Z" transform="translate(-602.71 -177.7)"/><path class="cls-3" d="M1046.17,226.72l.5-.29a.71.71,0,0,1,.72,1.23h0l-.5.29a.71.71,0,0,1-.72-1.23Z" transform="translate(-602.71 -177.7)"/><path class="cls-3" d="M1049.64,224.66l.5-.3a.72.72,0,1,1,.74,1.24h0l-.5.29a.72.72,0,0,1-.74-1.24Z" transform="translate(-602.71 -177.7)"/><path class="cls-3" d="M1053.1,222.58l.49-.3a.73.73,0,0,1,.76,1.25h0l-.5.3a.73.73,0,0,1-.76-1.25Z" transform="translate(-602.71 -177.7)"/><path class="cls-3" d="M1056.54,220.48l.49-.3a.74.74,0,0,1,.78,1.27h0l-.5.3a.74.74,0,0,1-.77-1.27Z" transform="translate(-602.71 -177.7)"/><path class="cls-3" d="M1060,218.35l.49-.31a.75.75,0,1,1,.8,1.28h0l-.49.3a.75.75,0,0,1-.79-1.28Z" transform="translate(-602.71 -177.7)"/><path class="cls-3" d="M1063.39,216.2l.49-.31a.76.76,0,1,1,.82,1.29h0l-.49.31a.76.76,0,0,1-.81-1.29Z" transform="translate(-602.71 -177.7)"/><path class="cls-3" d="M1066.79,214l.49-.31a.78.78,0,1,1,.84,1.3h0l-.49.31a.77.77,0,0,1-.83-1.3Z" transform="translate(-602.71 -177.7)"/><path class="cls-3" d="M1070.17,211.83l.48-.32a.79.79,0,1,1,.86,1.31h0l-.49.32a.78.78,0,0,1-.85-1.32Z" transform="translate(-602.71 -177.7)"/><path class="cls-3" d="M1073.54,209.61l.48-.32a.8.8,0,0,1,.88,1.32h0l-.49.32a.79.79,0,0,1-.88-1.33Z" transform="translate(-602.71 -177.7)"/><path class="cls-3" d="M1076.9,207.37l.48-.32a.81.81,0,1,1,.91,1.34h0l-.48.32a.81.81,0,0,1-.9-1.34Z" transform="translate(-602.71 -177.7)"/><path class="cls-3" d="M1080.23,205.09l.48-.33a.82.82,0,1,1,.93,1.34h0l-.48.33a.82.82,0,0,1-.92-1.35Z" transform="translate(-602.71 -177.7)"/><path class="cls-3" d="M1083.55,202.79l.47-.33a.83.83,0,0,1,1,1.35h0l-.48.33a.83.83,0,0,1-.95-1.36Z" transform="translate(-602.71 -177.7)"/><path class="cls-3" d="M1086.84,200.46l.47-.34a.84.84,0,0,1,1,1.36h0l-.47.34a.84.84,0,0,1-1-1.36Z" transform="translate(-602.71 -177.7)"/><path class="cls-3" d="M1090.11,198.09l.47-.34a.85.85,0,1,1,1,1.36h0l-.47.34a.84.84,0,1,1-1-1.36Z" transform="translate(-602.71 -177.7)"/><path class="cls-3" d="M1093.35,195.69l.46-.35a.85.85,0,0,1,1,1.35h0l-.47.35a.85.85,0,1,1-1-1.36Z" transform="translate(-602.71 -177.7)"/><path class="cls-3" d="M1096.55,193.24l.46-.36a.85.85,0,0,1,1.05,1.34h0l-.46.36a.85.85,0,1,1-1-1.35Z" transform="translate(-602.71 -177.7)"/><path class="cls-3" d="M1099.7,190.74l.45-.37a.86.86,0,1,1,1.09,1.32h0l-.46.37a.86.86,0,1,1-1.08-1.33Z" transform="translate(-602.71 -177.7)"/><path class="cls-3" d="M1102.79,188.17l.43-.38a.86.86,0,1,1,1.13,1.29h0l-.44.38a.86.86,0,1,1-1.12-1.3Z" transform="translate(-602.71 -177.7)"/><path class="cls-3" d="M1105.77,185.49l.41-.39h0a.86.86,0,0,1,1.19,1.25h0l-.43.4a.86.86,0,0,1-1.19-1.25Z" transform="translate(-602.71 -177.7)"/><path class="cls-3" d="M1108.54,182.66l.36-.42v0a.87.87,0,1,1,1.32,1.12h0l-.39.46a.87.87,0,0,1-1.32-1.13Z" transform="translate(-602.71 -177.7)"/><path class="cls-3" d="M1110.44,179.7a.43.43,0,0,0,0-.17l0-.09a.87.87,0,0,1,1.67-.45,2.11,2.11,0,0,1,.06,1,.87.87,0,1,1-1.72-.25Z" transform="translate(-602.71 -177.7)"/><path class="cls-3" d="M1108.23,179.44l-.54.09h0a.87.87,0,0,1-.28-1.72h0l.6-.1a.87.87,0,1,1,.28,1.72Z" transform="translate(-602.71 -177.7)"/><path class="cls-3" d="M1104.48,180.39l-.53.19h0a.88.88,0,1,1-.59-1.65h0l.56-.2a.88.88,0,0,1,.59,1.65Z" transform="translate(-602.71 -177.7)"/><path class="cls-3" d="M1100.86,181.91l-.51.25h0a.88.88,0,0,1-.78-1.58h0l.53-.26a.88.88,0,0,1,.78,1.58Z" transform="translate(-602.71 -177.7)"/><path class="cls-3" d="M1097.38,183.8l-.49.29h0a.88.88,0,1,1-.91-1.52h0l.5-.3a.88.88,0,0,1,.9,1.52Z" transform="translate(-602.71 -177.7)"/><path class="cls-3" d="M1094,185.94l-.47.32h0a.89.89,0,1,1-1-1.46h0l.48-.33a.89.89,0,1,1,1,1.46Z" transform="translate(-602.71 -177.7)"/><path class="cls-3" d="M1090.77,188.26l-.46.35h0a.89.89,0,0,1-1.08-1.42h0l.47-.35a.89.89,0,0,1,1.07,1.42Z" transform="translate(-602.71 -177.7)"/><path class="cls-3" d="M1087.62,190.74l-.44.36a.89.89,0,1,1-1.14-1.37h0l.45-.37a.89.89,0,1,1,1.13,1.38Z" transform="translate(-602.71 -177.7)"/><path class="cls-3" d="M1084.56,193.33l-.43.38a.9.9,0,1,1-1.19-1.34h0l.44-.39a.9.9,0,1,1,1.18,1.35Z" transform="translate(-602.71 -177.7)"/><path class="cls-3" d="M1081.59,196l-.42.39a.9.9,0,1,1-1.24-1.31h0l.43-.4a.9.9,0,1,1,1.23,1.32Z" transform="translate(-602.71 -177.7)"/><path class="cls-3" d="M1078.69,198.82l-.41.41a.9.9,0,0,1-1.28-1.28h0l.41-.41a.9.9,0,1,1,1.27,1.29Z" transform="translate(-602.71 -177.7)"/><path class="cls-3" d="M1075.88,201.68l-.4.42a.91.91,0,0,1-1.32-1.25h0l.4-.42a.91.91,0,1,1,1.31,1.26Z" transform="translate(-602.71 -177.7)"/><path class="cls-3" d="M1073.14,204.62l-.39.43a.91.91,0,1,1-1.36-1.22h0l.39-.43a.91.91,0,1,1,1.35,1.23Z" transform="translate(-602.71 -177.7)"/><path class="cls-3" d="M1070.48,207.63l-.38.44a.91.91,0,0,1-1.39-1.19h0l.38-.44a.91.91,0,1,1,1.38,1.2Z" transform="translate(-602.71 -177.7)"/><path class="cls-3" d="M1067.89,210.7l-.36.45a.92.92,0,1,1-1.43-1.16h0l.37-.45a.92.92,0,1,1,1.42,1.16Z" transform="translate(-602.71 -177.7)"/><path class="cls-3" d="M1065.39,213.84l-.35.46a.92.92,0,0,1-1.46-1.12h0l.36-.46a.92.92,0,1,1,1.45,1.13Z" transform="translate(-602.71 -177.7)"/><path class="cls-3" d="M1063,217l-.34.47a.93.93,0,1,1-1.5-1.08h0l.34-.47A.92.92,0,1,1,1063,217Z" transform="translate(-602.71 -177.7)"/><path class="cls-3" d="M1060.65,220.32l-.32.48a.93.93,0,0,1-1.54-1h0l.33-.48a.93.93,0,1,1,1.53,1.05Z" transform="translate(-602.71 -177.7)"/><path class="cls-3" d="M1058.44,223.66l-.31.49a.93.93,0,0,1-1.58-1h0l.31-.49a.93.93,0,1,1,1.57,1Z" transform="translate(-602.71 -177.7)"/><path class="cls-3" d="M1056.35,227.08l-.29.5h0a.94.94,0,0,1-1.62-.94h0l.29-.51a.93.93,0,1,1,1.62.94Z" transform="translate(-602.71 -177.7)"/><path class="cls-3" d="M1054.42,230.58l-.26.51h0a.94.94,0,1,1-1.67-.86h0l.27-.52a.94.94,0,1,1,1.67.86Z" transform="translate(-602.71 -177.7)"/><path class="cls-3" d="M1052.69,234.17l-.23.52h0a.94.94,0,0,1-1.73-.75h0l.24-.54a.94.94,0,1,1,1.72.76Z" transform="translate(-602.71 -177.7)"/><path class="cls-3" d="M1051.23,237.86l-.18.54h0a.95.95,0,0,1-1.79-.6h0l.19-.56a.95.95,0,0,1,1.79.6Z" transform="translate(-602.71 -177.7)"/><path class="cls-3" d="M1050.18,241.63l-.1.55v0a.95.95,0,1,1-1.86-.36h0l.11-.59a.95.95,0,0,1,1.86.36Z" transform="translate(-602.71 -177.7)"/><path class="cls-3" d="M1049.8,245.44l0,.53v0a1,1,0,0,1-1.9.09h0l0-.62a1,1,0,0,1,1.9-.09Z" transform="translate(-602.71 -177.7)"/><path class="cls-3" d="M1050.59,248.94l.24.43,0,.07a1,1,0,0,1-1.66.94h0l-.32-.58a1,1,0,0,1,1.66-.94Z" transform="translate(-602.71 -177.7)"/><path class="cls-3" d="M1053,251.36l.46.23.06,0a1,1,0,0,1-.85,1.72h0l-.58-.29a1,1,0,0,1,.85-1.72Z" transform="translate(-602.71 -177.7)"/><path class="cls-3" d="M1056.48,252.32l.54,0h0a1,1,0,0,1-.12,1.92h0l-.61,0a1,1,0,0,1,.12-1.92Z" transform="translate(-602.71 -177.7)"/><path class="cls-3" d="M1060.3,252.17l.55-.08h0a1,1,0,0,1,.28,1.91h0l-.59.09a1,1,0,1,1-.28-1.91Z" transform="translate(-602.71 -177.7)"/><path class="cls-3" d="M1064.13,251.38l.55-.15h0a1,1,0,0,1,.51,1.87h0l-.57.15a1,1,0,1,1-.5-1.87Z" transform="translate(-602.71 -177.7)"/><path class="cls-3" d="M1067.92,250.21l.54-.19h0a1,1,0,1,1,.65,1.84h0l-.55.19a1,1,0,0,1-.64-1.84Z" transform="translate(-602.71 -177.7)"/><path class="cls-3" d="M1071.66,248.8l.53-.22h0a1,1,0,1,1,.74,1.81h0l-.54.22a1,1,0,0,1-.74-1.81Z" transform="translate(-602.71 -177.7)"/><path class="cls-3" d="M1075.34,247.22l.52-.24a1,1,0,0,1,.82,1.78h0l-.53.24a1,1,0,1,1-.8-1.79Z" transform="translate(-602.71 -177.7)"/><path class="cls-3" d="M1079,245.52l.52-.25a1,1,0,1,1,.86,1.77h0l-.52.25a1,1,0,1,1-.85-1.77Z" transform="translate(-602.71 -177.7)"/><path class="cls-3" d="M1082.59,243.73l.51-.26a1,1,0,0,1,.9,1.76h0l-.52.26a1,1,0,1,1-.89-1.76Z" transform="translate(-602.71 -177.7)"/><path class="cls-3" d="M1086.16,241.88l.51-.27a1,1,0,0,1,.93,1.75h0l-.51.27a1,1,0,1,1-.92-1.75Z" transform="translate(-602.71 -177.7)"/><path class="cls-3" d="M1089.72,240l.51-.27a1,1,0,0,1,.95,1.75h0l-.51.27a1,1,0,0,1-.94-1.75Z" transform="translate(-602.71 -177.7)"/><path class="cls-3" d="M1093.26,238.06l.51-.28a1,1,0,0,1,1,1.75h0l-.51.28a1,1,0,0,1-1-1.75Z" transform="translate(-602.71 -177.7)"/><path class="cls-3" d="M1096.8,236.11l.51-.28a1,1,0,0,1,1,1.75l-.51.28a1,1,0,1,1-1-1.75Z" transform="translate(-602.71 -177.7)"/><path class="cls-3" d="M1100.33,234.15l.51-.28a1,1,0,0,1,1,1.74l-.51.28a1,1,0,0,1-1-1.74Z" transform="translate(-602.71 -177.7)"/><path class="cls-3" d="M1103.87,232.2l.51-.28a1,1,0,0,1,1,1.74l-.51.28a1,1,0,1,1-1-1.74Z" transform="translate(-602.71 -177.7)"/><path class="cls-3" d="M1107.42,230.25l.51-.28a1,1,0,0,1,.94,1.74l-.51.28a1,1,0,0,1-.95-1.74Z" transform="translate(-602.71 -177.7)"/><path class="cls-3" d="M1111,228.33l.51-.27a1,1,0,1,1,.92,1.74l-.51.27a1,1,0,0,1-.93-1.74Z" transform="translate(-602.71 -177.7)"/><path class="cls-3" d="M1114.58,226.45l.52-.27a1,1,0,1,1,.89,1.75l-.51.26a1,1,0,1,1-.9-1.74Z" transform="translate(-602.71 -177.7)"/><path class="cls-3" d="M1118.22,224.64l.53-.25a1,1,0,1,1,.85,1.76l-.52.25a1,1,0,1,1-.86-1.76Z" transform="translate(-602.71 -177.7)"/><path class="cls-3" d="M1121.92,222.92l.54-.24a1,1,0,0,1,.78,1.78h0l-.53.23h0a1,1,0,1,1-.79-1.78Z" transform="translate(-602.71 -177.7)"/><path class="cls-3" d="M1125.71,221.35l.56-.21a1,1,0,1,1,.68,1.82h0l-.54.2h0a1,1,0,1,1-.68-1.82Z" transform="translate(-602.71 -177.7)"/><path class="cls-3" d="M1129.64,220.07l.58-.15a1,1,0,1,1,.48,1.87h0l-.54.14h0a1,1,0,1,1-.48-1.87Z" transform="translate(-602.71 -177.7)"/><path class="cls-3" d="M1133.84,219.36h.63a1,1,0,1,1,0,1.93h-.63a1,1,0,1,1,0-1.93Z" transform="translate(-602.71 -177.7)"/><path class="cls-3" d="M1138.3,220.5l.54.48a1,1,0,1,1-1.26,1.44l-.11-.1-.32-.28-.11-.1a1,1,0,0,1,1.26-1.44Z" transform="translate(-602.71 -177.7)"/><path class="cls-3" d="M1140.43,224.68l.05.63a1,1,0,1,1-1.91.15v-.05l0-.52v-.06a1,1,0,1,1,1.91-.16Z" transform="translate(-602.71 -177.7)"/><path class="cls-3" d="M1140,229.06l-.2.59a1,1,0,0,1-1.8-.62v0l.17-.5v0a1,1,0,1,1,1.8.62Z" transform="translate(-602.71 -177.7)"/><path class="cls-3" d="M1138.11,232.91l-.32.51a.95.95,0,0,1-1.6-1v0l.3-.47v0a1,1,0,0,1,1.6,1Z" transform="translate(-602.71 -177.7)"/><path class="cls-3" d="M1135.65,236.26l-.38.45a.95.95,0,1,1-1.44-1.22h0l.36-.43h0a.95.95,0,1,1,1.45,1.22Z" transform="translate(-602.71 -177.7)"/><path class="cls-3" d="M1132.87,239.3l-.42.42a.94.94,0,0,1-1.33-1.33h0l.4-.4h0a.94.94,0,1,1,1.34,1.33Z" transform="translate(-602.71 -177.7)"/><path class="cls-3" d="M1129.9,242.12l-.44.39a.94.94,0,1,1-1.25-1.4h0l.43-.38h0a.94.94,0,0,1,1.26,1.4Z" transform="translate(-602.71 -177.7)"/><path class="cls-3" d="M1126.81,244.79l-.45.37a.94.94,0,1,1-1.19-1.44l.44-.37a.94.94,0,1,1,1.2,1.43Z" transform="translate(-602.71 -177.7)"/><path class="cls-3" d="M1123.65,247.34l-.46.36a.93.93,0,1,1-1.15-1.47l.45-.35a.93.93,0,1,1,1.16,1.46Z" transform="translate(-602.71 -177.7)"/><path class="cls-3" d="M1120.42,249.81l-.47.35a.93.93,0,1,1-1.11-1.49l.46-.35a.93.93,0,1,1,1.12,1.48Z" transform="translate(-602.71 -177.7)"/><path class="cls-3" d="M1117.15,252.22l-.47.34a.93.93,0,1,1-1.08-1.5l.47-.34a.93.93,0,0,1,1.09,1.5Z" transform="translate(-602.71 -177.7)"/><path class="cls-3" d="M1113.85,254.58l-.47.33a.92.92,0,0,1-1.06-1.51l.47-.33a.92.92,0,1,1,1.07,1.5Z" transform="translate(-602.71 -177.7)"/><path class="cls-3" d="M1110.53,256.9l-.48.33a.92.92,0,0,1-1-1.51l.47-.33a.92.92,0,1,1,1.05,1.51Z" transform="translate(-602.71 -177.7)"/><path class="cls-3" d="M1107.21,259.19l-.48.33a.92.92,0,0,1-1-1.51l.48-.33a.92.92,0,1,1,1,1.51Z" transform="translate(-602.71 -177.7)"/><path class="cls-3" d="M1103.87,261.47l-.48.33a.91.91,0,0,1-1-1.51l.48-.33a.91.91,0,1,1,1,1.51Z" transform="translate(-602.71 -177.7)"/><path class="cls-3" d="M1100.52,263.74l-.48.33a.91.91,0,0,1-1-1.5l.48-.33a.91.91,0,0,1,1,1.5Z" transform="translate(-602.71 -177.7)"/><path class="cls-3" d="M1097.18,266l-.48.33a.9.9,0,0,1-1-1.49l.48-.33a.91.91,0,1,1,1,1.49Z" transform="translate(-602.71 -177.7)"/><path class="cls-3" d="M1093.85,268.29l-.48.33a.9.9,0,0,1-1-1.48l.48-.33a.9.9,0,0,1,1,1.48Z" transform="translate(-602.71 -177.7)"/><path class="cls-3" d="M1090.54,270.6l-.47.33a.9.9,0,0,1-1-1.47l.47-.33a.9.9,0,0,1,1,1.47Z" transform="translate(-602.71 -177.7)"/><path class="cls-3" d="M1087.26,272.93l-.47.34a.89.89,0,1,1-1-1.45l.47-.34a.89.89,0,1,1,1,1.45Z" transform="translate(-602.71 -177.7)"/><path class="cls-3" d="M1084,275.31l-.46.35a.89.89,0,1,1-1.07-1.43l.47-.35a.89.89,0,0,1,1.07,1.43Z" transform="translate(-602.71 -177.7)"/><path class="cls-3" d="M1080.81,277.74l-.45.36a.89.89,0,1,1-1.1-1.39l.46-.36a.89.89,0,0,1,1.1,1.4Z" transform="translate(-602.71 -177.7)"/><path class="cls-3" d="M1077.68,280.26l-.44.37a.88.88,0,1,1-1.14-1.35l.45-.38a.88.88,0,0,1,1.14,1.35Z" transform="translate(-602.71 -177.7)"/><path class="cls-3" d="M1074.65,282.89l-.42.39h0A.88.88,0,0,1,1073,282l.43-.4a.88.88,0,0,1,1.19,1.29h0Z" transform="translate(-602.71 -177.7)"/><path class="cls-3" d="M1071.8,285.66l-.39.41h0a.88.88,0,0,1-1.28-1.2l.41-.43a.88.88,0,1,1,1.28,1.2h0Z" transform="translate(-602.71 -177.7)"/><path class="cls-3" d="M1069.22,288.65l-.33.45v0a.87.87,0,0,1-1.4-1l.36-.48a.87.87,0,1,1,1.41,1h0Z" transform="translate(-602.71 -177.7)"/><path class="cls-3" d="M1067.19,291.92l-.22.49,0,0a.87.87,0,0,1-1.59-.7l.25-.57a.87.87,0,1,1,1.6.69h0Z" transform="translate(-602.71 -177.7)"/><path class="cls-3" d="M1066.34,295.44l0,.5V296a.87.87,0,0,1-1.73.12l0-.66a.87.87,0,0,1,1.73-.12h0Z" transform="translate(-602.71 -177.7)"/><path class="cls-3" d="M1067.5,298.67l.33.4,0,0a.86.86,0,0,1-1.34,1.09l-.41-.49a.86.86,0,0,1,1.34-1.09h0Z" transform="translate(-602.71 -177.7)"/><path class="cls-3" d="M1070.3,301.1l.47.28,0,0a.86.86,0,0,1-.87,1.48l-.53-.31a.86.86,0,1,1,.87-1.48h0Z" transform="translate(-602.71 -177.7)"/><path class="cls-3" d="M1073.77,302.62l.53.14h0a.86.86,0,0,1-.44,1.65l-.59-.16a.86.86,0,1,1,.44-1.66h0Z" transform="translate(-602.71 -177.7)"/><path class="cls-3" d="M1077.56,303.24l.55,0h0a.85.85,0,0,1-.07,1.7l-.6,0a.85.85,0,1,1,.07-1.7h0Z" transform="translate(-602.71 -177.7)"/><path class="cls-3" d="M1081.46,303.12l.56-.06h0a.85.85,0,0,1,.2,1.69l-.59.07a.85.85,0,1,1-.2-1.69h0Z" transform="translate(-602.71 -177.7)"/><path class="cls-3" d="M1085.34,302.47l.55-.13h0a.85.85,0,0,1,.38,1.65l-.57.13a.85.85,0,1,1-.39-1.65h0Z" transform="translate(-602.71 -177.7)"/><path class="cls-3" d="M1089.17,301.43l.54-.17h0a.84.84,0,0,1,.52,1.6l-.56.18a.84.84,0,0,1-.52-1.6h0Z" transform="translate(-602.71 -177.7)"/><path class="cls-3" d="M1092.93,300.1l.53-.21h0a.83.83,0,0,1,.61,1.54l-.54.22a.83.83,0,1,1-.61-1.54h0Z" transform="translate(-602.71 -177.7)"/><path class="cls-3" d="M1096.63,298.57l.52-.23a.82.82,0,1,1,.67,1.49l-.53.24a.82.82,0,1,1-.68-1.49Z" transform="translate(-602.71 -177.7)"/><path class="cls-3" d="M1100.27,296.87l.52-.25a.81.81,0,0,1,.72,1.44l-.52.26a.81.81,0,0,1-.72-1.45Z" transform="translate(-602.71 -177.7)"/><path class="cls-3" d="M1103.85,295l.51-.27a.8.8,0,0,1,.75,1.4l-.51.28a.8.8,0,0,1-.76-1.4Z" transform="translate(-602.71 -177.7)"/><path class="cls-3" d="M1107.38,293.12l.5-.28a.79.79,0,0,1,.78,1.37l-.51.29a.79.79,0,1,1-.78-1.37Z" transform="translate(-602.71 -177.7)"/><path class="cls-3" d="M1110.87,291.11l.5-.29a.78.78,0,0,1,.79,1.33l-.5.3a.78.78,0,1,1-.8-1.33Z" transform="translate(-602.71 -177.7)"/><path class="cls-3" d="M1114.32,289l.49-.3a.76.76,0,0,1,.8,1.3l-.49.31a.77.77,0,0,1-.81-1.3Z" transform="translate(-602.71 -177.7)"/><path class="cls-3" d="M1117.75,286.92l.49-.31a.75.75,0,0,1,.81,1.27l-.49.31a.76.76,0,1,1-.81-1.27Z" transform="translate(-602.71 -177.7)"/><path class="cls-3" d="M1121.15,284.76l.49-.31a.74.74,0,0,1,.81,1.25l-.49.32a.74.74,0,1,1-.81-1.25Z" transform="translate(-602.71 -177.7)"/><path class="cls-3" d="M1124.54,282.57l.48-.32a.73.73,0,0,1,.8,1.23l-.48.32a.73.73,0,1,1-.81-1.23Z" transform="translate(-602.71 -177.7)"/><path class="cls-3" d="M1127.92,280.35l.48-.32a.72.72,0,0,1,.8,1.2l-.48.32a.72.72,0,0,1-.8-1.21Z" transform="translate(-602.71 -177.7)"/><path class="cls-3" d="M1131.29,278.13l.48-.32a.71.71,0,0,1,.79,1.19l-.48.32a.71.71,0,1,1-.79-1.19Z" transform="translate(-602.71 -177.7)"/><path class="cls-3" d="M1134.67,275.91l.49-.32a.7.7,0,0,1,.77,1.17l-.48.32a.7.7,0,0,1-.78-1.17Z" transform="translate(-602.71 -177.7)"/><path class="cls-3" d="M1138.06,273.7l.49-.32a.69.69,0,0,1,.75,1.16l-.49.32a.69.69,0,1,1-.76-1.16Z" transform="translate(-602.71 -177.7)"/><path class="cls-3" d="M1141.48,271.51l.49-.31a.68.68,0,0,1,.72,1.15l-.49.31a.68.68,0,1,1-.73-1.15Z" transform="translate(-602.71 -177.7)"/><path class="cls-3" d="M1144.94,269.39l.5-.3a.67.67,0,0,1,.68,1.15l-.5.3a.67.67,0,0,1-.7-1.15Z" transform="translate(-602.71 -177.7)"/><path class="cls-3" d="M1148.47,267.37l.52-.28a.66.66,0,0,1,.63,1.16h0l-.51.28h0a.66.66,0,1,1-.63-1.16Z" transform="translate(-602.71 -177.7)"/><path class="cls-3" d="M1152.12,265.53l.54-.24a.65.65,0,0,1,.53,1.19h0l-.52.23h0a.65.65,0,0,1-.53-1.19Z" transform="translate(-602.71 -177.7)"/><path class="cls-3" d="M1156,264.11l.6-.13a.64.64,0,0,1,.27,1.25h0l-.53.12h0a.64.64,0,1,1-.27-1.25Z" transform="translate(-602.71 -177.7)"/><path class="cls-3" d="M1160.48,264.5l.53.48a.62.62,0,0,1-.81.94l-.13-.11-.32-.29-.12-.12a.62.62,0,0,1,.85-.91Z" transform="translate(-602.71 -177.7)"/><path class="cls-3" d="M1162.12,268.63v.61a.62.62,0,0,1-1.23,0v-.61a.62.62,0,0,1,1.24,0Z" transform="translate(-602.71 -177.7)"/><path class="cls-3" d="M1161.69,272.79l-.13.58a.61.61,0,0,1-1.18-.27h0l.12-.55h0a.61.61,0,0,1,1.19.26Z" transform="translate(-602.71 -177.7)"/><path class="cls-3" d="M1160.54,276.74l-.2.55a.6.6,0,0,1-1.12-.4h0l.19-.54h0a.6.6,0,1,1,1.13.4Z" transform="translate(-602.71 -177.7)"/><path class="cls-3" d="M1159,280.53l-.24.53a.59.59,0,0,1-1.07-.48h0l.23-.52h0a.59.59,0,0,1,1.07.48Z" transform="translate(-602.71 -177.7)"/><path class="cls-3" d="M1157.23,284.19l-.27.52a.57.57,0,1,1-1-.53l.26-.51a.58.58,0,0,1,1,.52Z" transform="translate(-602.71 -177.7)"/><path class="cls-3" d="M1155.28,287.75l-.29.5a.56.56,0,1,1-1-.57l.29-.5a.57.57,0,0,1,1,.56Z" transform="translate(-602.71 -177.7)"/><path class="cls-3" d="M1153.19,291.23l-.31.49a.55.55,0,0,1-.94-.59l.3-.49a.56.56,0,0,1,.95.58Z" transform="translate(-602.71 -177.7)"/><path class="cls-3" d="M1151,294.63l-.33.48a.54.54,0,0,1-.9-.61l.32-.48a.54.54,0,1,1,.91.6Z" transform="translate(-602.71 -177.7)"/><path class="cls-3" d="M1148.67,298l-.34.47a.53.53,0,0,1-.87-.62l.33-.47a.53.53,0,0,1,.87.62Z" transform="translate(-602.71 -177.7)"/><path class="cls-3" d="M1146.26,301.24l-.35.46a.52.52,0,0,1-.83-.63l.35-.46a.52.52,0,0,1,.84.63Z" transform="translate(-602.71 -177.7)"/><path class="cls-3" d="M1143.76,304.43l-.37.45a.51.51,0,0,1-.8-.64l.36-.45a.51.51,0,0,1,.8.64Z" transform="translate(-602.71 -177.7)"/><path class="cls-3" d="M1141.17,307.55l-.38.44a.5.5,0,0,1-.76-.66l.38-.44a.5.5,0,0,1,.77.65Z" transform="translate(-602.71 -177.7)"/><path class="cls-3" d="M1138.45,310.58l-.4.43a.48.48,0,0,1-.71-.66l.39-.43a.49.49,0,0,1,.72.65Z" transform="translate(-602.71 -177.7)"/><path class="cls-3" d="M1135.61,313.49l-.42.41a.46.46,0,1,1-.64-.67l.41-.4a.47.47,0,0,1,.66.66Z" transform="translate(-602.71 -177.7)"/><path class="cls-3" d="M1132.57,316.21l-.46.37a.45.45,0,0,1-.56-.69h0l.44-.36h0a.45.45,0,0,1,.57.69Z" transform="translate(-602.71 -177.7)"/><path class="cls-3" d="M1129.16,318.55l-.55.26a.43.43,0,0,1-.37-.77h0l.49-.24h0a.43.43,0,1,1,.37.77Z" transform="translate(-602.71 -177.7)"/><path class="cls-3" d="M1125.16,317.82l-.13-.64a.41.41,0,0,1,.8-.17v.07l.11.49,0,.08a.41.41,0,0,1-.8.17Z" transform="translate(-602.71 -177.7)"/><path class="cls-3" d="M1125.59,313.59l.24-.55a.39.39,0,0,1,.71.31v0l-.22.51v0a.39.39,0,1,1-.72-.31Z" transform="translate(-602.71 -177.7)"/><path class="cls-3" d="M1127.72,310.06l.36-.46a.37.37,0,0,1,.58.46h0l-.35.45h0a.37.37,0,0,1-.59-.46Z" transform="translate(-602.71 -177.7)"/><path class="cls-3" d="M1130.46,307l.42-.4a.35.35,0,0,1,.49.51h0l-.41.4h0a.35.35,0,0,1-.5-.51Z" transform="translate(-602.71 -177.7)"/><path class="cls-3" d="M1133.5,304.34l.45-.36a.33.33,0,1,1,.42.52l-.44.36a.34.34,0,1,1-.43-.51Z" transform="translate(-602.71 -177.7)"/><path class="cls-3" d="M1136.73,301.89l.48-.34a.31.31,0,0,1,.36.51l-.47.34a.32.32,0,1,1-.37-.51Z" transform="translate(-602.71 -177.7)"/><path class="cls-3" d="M1140.1,299.63l.49-.31a.3.3,0,0,1,.32.5l-.49.31a.3.3,0,1,1-.33-.5Z" transform="translate(-602.71 -177.7)"/><path class="cls-3" d="M1143.57,297.54l.51-.29a.28.28,0,0,1,.27.48l-.5.29a.28.28,0,1,1-.28-.48Z" transform="translate(-602.71 -177.7)"/><path class="cls-3" d="M1147.13,295.61l.52-.26a.26.26,0,0,1,.24.46l-.51.27a.26.26,0,0,1-.25-.46Z" transform="translate(-602.71 -177.7)"/><path class="cls-3" d="M1150.76,293.82l.53-.24a.24.24,0,0,1,.2.43l-.52.25a.24.24,0,1,1-.21-.44Z" transform="translate(-602.71 -177.7)"/><path class="cls-3" d="M1154.46,292.19l.54-.22a.22.22,0,0,1,.17.41l-.53.23a.22.22,0,0,1-.18-.41Z" transform="translate(-602.71 -177.7)"/><path class="cls-3" d="M1158.23,290.71l.54-.2a.2.2,0,0,1,.14.38l-.54.2a.2.2,0,1,1-.15-.38Z" transform="translate(-602.71 -177.7)"/><path class="cls-3" d="M1162.06,289.39l.55-.17a.18.18,0,0,1,.11.35l-.55.18a.19.19,0,0,1-.12-.35Z" transform="translate(-602.71 -177.7)"/><path class="cls-3" d="M1166,288.25l.56-.15a.16.16,0,0,1,.08.32l-.56.15a.17.17,0,1,1-.09-.32Z" transform="translate(-602.71 -177.7)"/><path class="cls-3" d="M1169.89,287.31l.57-.12a.15.15,0,0,1,.06.29l-.57.12a.15.15,0,0,1-.06-.29Z" transform="translate(-602.71 -177.7)"/><path class="cls-3" d="M1173.88,286.62l.58-.08a.13.13,0,1,1,0,.25l-.57.08a.13.13,0,1,1,0-.26Z" transform="translate(-602.71 -177.7)"/><path class="cls-3" d="M1177.91,286.21l.58,0a.11.11,0,0,1,.11.1.11.11,0,0,1-.1.11l-.58,0a.11.11,0,1,1,0-.22Z" transform="translate(-602.71 -177.7)"/><path class="cls-3" d="M1182,286.17l.58,0a.09.09,0,0,1,.09.09.09.09,0,0,1-.09.09l-.58,0a.09.09,0,0,1,0-.18Z" transform="translate(-602.71 -177.7)"/><path class="cls-3" d="M1186,286.58l.57.1a.07.07,0,0,1,.06.08.07.07,0,0,1-.08.06l-.57-.1a.07.07,0,0,1,0-.15Z" transform="translate(-602.71 -177.7)"/><path class="cls-3" d="M1189.91,287.59l.54.2a.05.05,0,0,1,0,.07.05.05,0,0,1-.07,0l-.54-.2a.05.05,0,0,1,0-.1Z" transform="translate(-602.71 -177.7)"/><path class="cls-3" d="M1193.56,289.35l.48.32a0,0,0,0,1,0,0,0,0,0,0,1,0,0l-.49-.31a0,0,0,0,1,0-.06Z" transform="translate(-602.71 -177.7)"/><path class="cls-3" d="M1196.66,291.93l.38.43a0,0,0,0,1,0,0h0l-.39-.43a0,0,0,0,1,0,0h0Z" transform="translate(-602.71 -177.7)"/></g></g><g id="_Grupo_33" data-name="&lt;Grupo&gt;"><g id="_Grupo_34" data-name="&lt;Grupo&gt;"><line id="_Trazado_85" data-name="&lt;Trazado&gt;" class="cls-14" x1="472.02" y1="160.85" x2="293.02" y2="94.39"/><line id="_Trazado_86" data-name="&lt;Trazado&gt;" class="cls-15" x1="573.31" y1="198.46" x2="472.02" y2="160.85"/><circle id="_Trazado_87" data-name="&lt;Trazado&gt;" class="cls-3" cx="293.02" cy="94.39" r="4.93"/></g><polygon id="_Trazado_88" data-name="&lt;Trazado&gt;" points="226.1 448.28 226.1 483.09 240.41 483.09 247.69 448.28 226.1 448.28"/><polygon id="base-radio" class="cls-3" points="549.14 448.28 549.14 483.09 534.83 483.09 527.55 448.28 549.14 448.28"/><g id="_Grupo_35" data-name="&lt;Grupo&gt;"><path id="left-radio" class="cls-3" d="M781.93,446.27l12.29,172.38a12,12,0,0,0,12.12,11.43l112.39-.94L916.81,445.7Z" transform="translate(-602.71 -177.7)"/><path id="_Trazado_89" data-name="&lt;Trazado&gt;" d="M1177,444.6l-260.17,1.1,1.92,183.44,243.27-2a12,12,0,0,0,11.93-11.88Z" transform="translate(-602.71 -177.7)"/></g><polygon id="_Trazado_90" data-name="&lt;Trazado&gt;" class="cls-12" points="327.21 280.41 328.47 440.49 559.33 438.2 562.48 278.05 327.21 280.41"/><polygon id="_Trazado_91" data-name="&lt;Trazado&gt;" class="cls-12" points="304.02 443.7 300.76 275.51 198.32 275.31 202.89 445.14 304.02 443.7"/><polygon id="_Trazado_92" data-name="&lt;Trazado&gt;" class="cls-16" points="333.03 285.09 332.73 437.75 556.98 434.08 559.63 282.4 333.03 285.09"/><g id="line-radio"><line id="_Trazado_93" data-name="&lt;Trazado&gt;" class="cls-17" x1="341.03" y1="295.76" x2="554.03" y2="296.18"/><line id="_Trazado_94" data-name="&lt;Trazado&gt;" class="cls-17" x1="552.03" y1="307.04" x2="341.01" y2="310.21"/><line id="_Trazado_95" data-name="&lt;Trazado&gt;" class="cls-17" x1="342.16" y1="323.57" x2="553.35" y2="322.55"/><line id="_Trazado_96" data-name="&lt;Trazado&gt;" class="cls-17" x1="341.39" y1="344.76" x2="552.65" y2="341.59"/><line id="_Trazado_97" data-name="&lt;Trazado&gt;" class="cls-17" x1="344.11" y1="360.83" x2="552.07" y2="357.56"/><line id="_Trazado_98" data-name="&lt;Trazado&gt;" class="cls-17" x1="343.51" y1="377.35" x2="551.46" y2="374.32"/><line id="_Trazado_99" data-name="&lt;Trazado&gt;" class="cls-17" x1="342.79" y1="396.93" x2="547.93" y2="393.43"/><line id="_Trazado_100" data-name="&lt;Trazado&gt;" class="cls-17" x1="343.94" y1="411.68" x2="551.83" y2="410.27"/><line id="_Trazado_101" data-name="&lt;Trazado&gt;" class="cls-17" x1="344.08" y1="425.57" x2="551.81" y2="421.4"/></g><polygon id="_Trazado_102" data-name="&lt;Trazado&gt;" class="cls-16" points="203.7 281.08 208.29 440.25 297.98 440.43 294.86 281.26 203.7 281.08"/><line id="_Trazado_103" data-name="&lt;Trazado&gt;" class="cls-16" x1="204.67" y1="314.67" x2="295.49" y2="313.18"/><g id="_Grupo_36" data-name="&lt;Grupo&gt;"><path id="_Trazado_104" data-name="&lt;Trazado&gt;" class="cls-18" d="M819.4,486.51c4.86-4,3-15.07,3-15.07" transform="translate(-602.71 -177.7)"/><path id="_Trazado_105" data-name="&lt;Trazado&gt;" class="cls-18" d="M816.74,469.72s16-4.47,17.09,0-15.67,7.75-15.67,7.75" transform="translate(-602.71 -177.7)"/><path id="_Trazado_106" data-name="&lt;Trazado&gt;" class="cls-18" d="M839.52,482.49c-5.54,5.57-12,3.34-14.22-6.82" transform="translate(-602.71 -177.7)"/><path id="_Trazado_107" data-name="&lt;Trazado&gt;" class="cls-18" d="M839.22,471c-2.16-.54-7.7,10.76-4,11.18,3.19.37,6-12.26,6-12.26s-.87,15,2.85,15.87c3.21.75,5.34-6.63,5.34-6.63" transform="translate(-602.71 -177.7)"/><path id="_Trazado_108" data-name="&lt;Trazado&gt;" class="cls-18" d="M853.57,472.69c-3.91-.56-6.07,12.92-2.77,12.39,4.81-.77,8.43-21.22,5.53-20-2.74,1.13-2.5,18.8,1.22,20s7-12.39,7-12.39-.92,9.56,2.68,10.7c3.43,1.09,5.74-4.4,5.74-4.4" transform="translate(-602.71 -177.7)"/><path id="_Trazado_109" data-name="&lt;Trazado&gt;" class="cls-18" d="M876.65,470c-3.24,1.07-5.42,13.72-1.65,14.33s5.61-16.7,3.27-16.5S876,479.65,889,480.94" transform="translate(-602.71 -177.7)"/><circle id="_Trazado_110" data-name="&lt;Trazado&gt;" class="cls-1" cx="865.01" cy="470" r="1.12" transform="translate(-209.4 1156.38) rotate(-89.89)"/></g><g id="_Grupo_37" data-name="&lt;Grupo&gt;"><circle id="_Trazado_111" data-name="&lt;Trazado&gt;" cx="853.63" cy="526.72" r="20.73" transform="matrix(0.04, -1, 1, 0.04, -308.53, 1181.57)"/><circle id="_Trazado_112" data-name="&lt;Trazado&gt;" class="cls-2" cx="853.63" cy="526.72" r="18.46" transform="translate(-308.53 1181.57) rotate(-87.78)"/><g id="_Grupo_38" data-name="&lt;Grupo&gt;"><path id="_Trazado_113" data-name="&lt;Trazado&gt;" class="cls-12" d="M863.3,529.34a9.93,9.93,0,0,0-.26-6.08l-9.42,3.45Z" transform="translate(-602.71 -177.7)"/><path id="_Trazado_114" data-name="&lt;Trazado&gt;" class="cls-3" d="M863.3,529.34l-9.68-2.62,9.42-3.45a10,10,0,1,0,.26,6.08Z" transform="translate(-602.71 -177.7)"/></g></g><g id="_Grupo_39" data-name="&lt;Grupo&gt;"><circle id="_Trazado_115" data-name="&lt;Trazado&gt;" cx="853.63" cy="579.67" r="20.73" transform="translate(-627.46 -139.47) rotate(-2.53)"/><circle id="_Trazado_116" data-name="&lt;Trazado&gt;" class="cls-2" cx="853.63" cy="579.67" r="18.46" transform="translate(-627.46 -139.47) rotate(-2.53)"/><g id="_Grupo_40" data-name="&lt;Grupo&gt;"><path id="_Trazado_117" data-name="&lt;Trazado&gt;" class="cls-12" d="M843.77,577.86a9.92,9.92,0,0,0,.76,6l9.1-4.22Z" transform="translate(-602.71 -177.7)"/><path id="_Trazado_118" data-name="&lt;Trazado&gt;" class="cls-3" d="M843.77,577.86l9.86,1.81-9.1,4.22a10,10,0,1,0-.76-6Z" transform="translate(-602.71 -177.7)"/></g></g><path id="_Trazado_119" data-name="&lt;Trazado&gt;" class="cls-3" d="M785.36,482.64" transform="translate(-602.71 -177.7)"/><polygon id="_Trazado_120" data-name="&lt;Trazado&gt;" points="179.23 264.2 577.21 264.99 577.34 194.98 175.94 194.19 179.23 264.2"/><g id="_Grupo_41" data-name="&lt;Grupo&gt;"><circle id="light-radio-left" class="cls-3" cx="1060.72" cy="409.29" r="9.15" transform="translate(46.63 1291.5) rotate(-89.89)"/><circle id="_Trazado_121" data-name="&lt;Trazado&gt;" class="cls-12" cx="1098.23" cy="409.36" r="9.15" transform="translate(83.98 1329.08) rotate(-89.89)"/><circle id="ligh-radio-right" class="cls-3" cx="1132.09" cy="409.43" r="9.15" transform="translate(117.71 1363.01) rotate(-89.89)"/></g><g id="_Grupo_42" data-name="&lt;Grupo&gt;"><circle id="_Trazado_122" data-name="&lt;Trazado&gt;" class="cls-2" cx="1063.72" cy="409.29" r="9.15" transform="translate(49.62 1294.5) rotate(-89.89)"/><circle id="_Trazado_123" data-name="&lt;Trazado&gt;" class="cls-19" cx="1101.23" cy="409.36" r="9.15" transform="translate(86.98 1332.08) rotate(-89.89)"/><circle id="_Trazado_124" data-name="&lt;Trazado&gt;" class="cls-2" cx="1135.09" cy="409.43" r="9.15" transform="translate(120.71 1366.01) rotate(-89.89)"/></g><polygon id="_Trazado_125" data-name="&lt;Trazado&gt;" class="cls-2" points="185.32 204.03 186.17 258.13 570.09 256.66 569.82 201.73 185.32 204.03"/></g></g></svg>